<svg width="46" height="82" viewBox="0 0 46 82" fill="none" xmlns="http://www.w3.org/2000/svg">
<path d="M15.2251 43.305C15.2251 43.305 20.4051 44.885 21.0851 47.765C21.7251 50.455 16.8851 51.695 16.8851 51.695C16.8851 51.695 25.2851 52.615 25.3951 49.355C25.5051 46.095 22.4551 42.865 20.2551 43.025C18.0551 43.185 15.2251 43.305 15.2251 43.305Z" fill="white"/>
<path d="M16.1052 45.105C14.354 44.8146 12.5625 44.8757 10.8352 45.285C9.20067 45.6585 7.6829 46.4277 6.41517 47.525L6.11517 47.825L5.98517 47.975C5.98517 47.975 5.98517 48.025 5.98517 48.055C5.90544 48.1919 5.83849 48.3358 5.78517 48.485C5.63849 48.9904 5.52492 49.5048 5.44517 50.025C5.09221 52.4593 5.03848 54.9276 5.28517 57.375C5.51111 59.9976 5.90526 62.6029 6.46517 65.175C6.96775 67.4737 7.63617 69.7329 8.46517 71.935C8.98517 73.335 9.60517 74.705 10.1952 76.055L10.6352 77.055L10.9852 78.175C11.1952 78.885 11.4152 79.585 11.6552 80.275C11.9352 81.125 11.3552 81.485 10.1652 81.275C9.42592 81.1103 8.71723 80.8302 8.06517 80.445C7.66521 80.2243 7.28688 79.9665 6.93517 79.675C6.74517 79.525 6.59517 79.355 6.40517 79.205C6.27018 79.0124 6.14663 78.8121 6.03517 78.605C4.54753 75.6954 3.31944 72.6604 2.36517 69.535C1.43134 66.3965 0.828065 63.1689 0.565166 59.905C0.405166 57.905 0.165166 55.905 0.0451658 53.855C-0.0150553 52.7858 -0.0150553 51.7141 0.0451658 50.645C0.13959 49.461 0.388364 48.2945 0.785166 47.175C1.06056 46.458 1.43776 45.7844 1.90517 45.175L2.31517 44.685L2.67517 44.345C2.90748 44.1187 3.1547 43.9082 3.41517 43.715C4.40298 42.9388 5.49328 42.3028 6.65517 41.825C8.86529 40.9441 11.2164 40.4698 13.5952 40.425C16.4858 40.3204 19.3585 40.921 21.9652 42.175C24.4672 43.2978 26.3119 45.5115 26.9652 48.175C27.0199 48.472 27.05 48.773 27.0552 49.075C27.0552 49.375 26.9952 49.675 26.9752 49.975C26.9552 50.275 26.7452 50.535 26.6152 50.805L26.0952 51.535L25.4352 52.155C25.2021 52.3409 24.9546 52.5081 24.6952 52.655C24.2657 52.9025 23.8177 53.1165 23.3552 53.295C21.792 53.8492 20.16 54.1857 18.5052 54.295C17.7052 54.395 16.9252 54.365 16.1252 54.395C15.3252 54.425 14.5352 54.395 13.7552 54.285C12.9752 54.175 12.3852 54.205 11.7552 54.075C11.1252 53.945 10.5952 53.845 10.1652 53.725C9.81251 53.6045 9.47651 53.4398 9.16517 53.235C8.7162 52.9537 8.38818 52.5151 8.24517 52.005C8.16006 51.7979 8.09314 51.5837 8.04517 51.365C7.96517 50.725 9.11517 50.365 10.8952 50.365C13.4703 50.5901 16.0601 50.5901 18.6352 50.365C19.7743 50.2688 20.8948 50.0164 21.9652 49.615C22.1852 49.515 22.3652 49.405 22.5652 49.315C22.7652 49.225 22.6952 49.225 22.7052 49.215C22.6152 49.215 22.7052 49.285 22.7052 49.215C22.6757 49.1529 22.6423 49.0928 22.6052 49.035C22.541 48.9246 22.4709 48.8178 22.3952 48.715C22.2152 48.515 22.0952 48.275 21.9152 48.065C21.5107 47.5779 21.0273 47.1621 20.4852 46.835C19.1609 45.9671 17.6623 45.4005 16.0952 45.175L16.1052 45.105Z" fill="white"/>
<path d="M13.285 11.695C13.405 11.165 13.525 10.645 13.665 10.115L13.805 9.565C13.8429 9.32842 13.8964 9.09458 13.965 8.865L14.375 7.475C14.615 6.535 15.015 5.705 15.315 4.835L15.925 3.745L16.225 3.205L16.555 2.775C17.2361 1.74279 18.2017 0.930029 19.335 0.435003C19.871 0.1902 20.447 0.0445148 21.035 0.00500299C21.3728 -0.0151112 21.7115 0.0255323 22.035 0.125003C22.3182 0.221366 22.5898 0.34881 22.845 0.505003C23.5084 0.946946 24.0791 1.51424 24.525 2.175C25.0783 3.04834 25.4711 4.0135 25.685 5.025C25.9246 6.10894 26.0884 7.20827 26.175 8.315C26.175 8.885 26.255 9.455 26.275 10.025C26.295 10.595 26.275 11.235 26.275 11.485C26.275 12.845 26.275 14.195 26.165 15.545C26.025 18.225 25.825 20.885 25.455 23.545C25.185 25.895 24.905 28.255 24.635 30.545C24.404 33.6 23.6426 36.5913 22.385 39.385C21.935 40.255 21.385 39.905 20.965 38.975C20.3548 37.6875 20.0405 36.2798 20.045 34.855C20.095 34.125 20.045 33.385 20.145 32.655L20.315 30.465L20.595 26.045C20.685 24.575 20.775 23.045 20.855 21.615C20.935 20.185 21.145 18.615 21.285 17.175C21.4567 15.3798 21.4734 13.5731 21.335 11.775L21.325 11.175V10.725L21.205 9.785C21.1468 9.37341 21.0038 8.9784 20.785 8.625C20.6804 8.45601 20.4754 8.37814 20.285 8.435C20.1233 8.49088 19.9787 8.58729 19.865 8.715C19.3729 9.32763 19.006 10.0309 18.785 10.785C18.7274 10.9222 18.6773 11.0624 18.635 11.205L18.365 12.065C18.195 12.655 18.015 13.235 17.865 13.835C17.535 15.025 17.275 16.245 17.055 17.465C16.3526 21.1681 15.9281 24.9186 15.785 28.685C15.7589 31.556 15.9562 34.4246 16.375 37.265C16.455 37.885 16.595 38.475 16.665 39.095C16.7365 39.9212 16.6859 40.7535 16.515 41.565C16.35 42.0619 16.0527 42.5044 15.655 42.845C15.4954 43.0095 15.325 43.1632 15.145 43.305C14.855 43.495 14.535 43.375 14.145 42.995C13.55 42.4721 13.0845 41.8183 12.785 41.085C12.2755 39.7812 11.9393 38.4163 11.785 37.025C11.585 35.645 11.425 34.235 11.345 32.835C11.1917 30.0028 11.2184 27.1638 11.425 24.335C11.5783 22.2283 11.8083 20.1217 12.115 18.015C12.275 16.955 12.455 15.905 12.645 14.855C12.835 13.805 12.995 12.735 13.205 11.675L13.285 11.695Z" fill="white"/>
<path d="M38.985 17.2549C39.235 16.4149 39.455 15.5649 39.645 14.7349C39.835 13.9049 40.055 13.1049 40.185 12.3149V12.0249V11.8449C40.1894 11.7983 40.1894 11.7515 40.185 11.7049C40.1958 11.6052 40.1958 11.5046 40.185 11.4049C40.1953 11.1697 40.1361 10.9367 40.015 10.7349C39.9383 10.5743 39.7532 10.4968 39.585 10.5549C39.4504 10.6445 39.3234 10.7448 39.205 10.8549C39.0919 10.9443 38.9881 11.0448 38.895 11.1549C38.8281 11.2187 38.7677 11.289 38.715 11.3649L38.655 11.4349L38.555 11.6149L38.335 11.9849C37.765 12.9849 37.255 13.9849 36.675 15.0549C35.555 17.1349 34.525 19.3049 33.585 21.5149C32.755 23.5149 32.125 25.5149 31.445 27.5149C31.035 28.8049 30.685 30.1149 30.305 31.4049L29.725 33.3249C29.555 33.9449 29.195 34.5549 29.005 35.1149C28.875 35.4549 28.685 35.4849 28.425 35.5549C28.165 35.6249 27.795 35.4849 27.425 35.0449C26.9786 34.5011 26.6147 33.8946 26.345 33.2449C26.0612 32.4856 25.9752 31.6666 26.095 30.8649C26.315 29.4049 26.595 27.9749 26.915 26.5649C27.1986 25.1473 27.6 23.7558 28.115 22.4049C29.1217 19.6812 30.3318 17.0371 31.735 14.4949C32.165 13.7349 32.575 12.9449 32.975 12.1549L34.315 9.77491L34.785 9.17491C34.965 8.88491 35.135 8.59491 35.345 8.29491C35.745 7.69491 36.165 7.13491 36.585 6.59491C37.3226 5.62846 38.3071 4.87881 39.435 4.42491C40.0329 4.2096 40.6871 4.2096 41.285 4.42491C41.575 4.57491 41.865 4.71491 42.155 4.87491L42.935 5.42491C43.8789 6.40664 44.521 7.63882 44.785 8.97491C44.9427 9.69767 45.0232 10.4351 45.025 11.1749C45.0528 11.5077 45.0528 11.8422 45.025 12.1749C45.025 12.4449 45.025 12.7249 44.965 12.9749C44.8661 13.9871 44.6889 14.9901 44.435 15.9749C43.8025 18.3268 43.0175 20.635 42.085 22.8849C40.735 26.2649 39.085 29.4949 37.525 32.6949C36.295 35.1849 35.215 37.6949 33.925 40.1549C33.635 40.6949 33.375 41.2449 33.045 41.7749C32.6645 42.5169 32.1209 43.1631 31.455 43.6649C30.9672 43.9018 30.4122 43.9619 29.885 43.8349C29.6516 43.8067 29.4209 43.7599 29.195 43.6949C28.865 43.5649 28.725 43.2349 28.695 42.6949C28.6354 42.0317 28.7672 41.3654 29.075 40.7749L32.155 34.2349C33.155 31.9949 34.155 29.7149 35.155 27.4249C36.6112 24.078 37.8406 20.6369 38.835 17.1249L38.985 17.2549Z" fill="white"/>
<path d="M33.9051 63.175C31.9151 65.7068 29.7247 68.0744 27.3551 70.255C26.516 71.1118 25.6134 71.9041 24.6551 72.625C23.7446 73.2932 22.7617 73.8567 21.7251 74.305C21.1452 74.5559 20.5377 74.7371 19.9151 74.845C19.1761 74.9824 18.415 74.9412 17.6951 74.725L17.1251 74.525C16.9551 74.435 16.7851 74.325 16.6251 74.225C16.2913 74.0146 15.9941 73.7511 15.7451 73.445C15.4992 73.1396 15.2941 72.8035 15.1351 72.445C15.01 72.1198 14.9097 71.7855 14.8351 71.445C14.6596 70.2478 14.7939 69.0256 15.2251 67.895C15.8469 66.1414 16.7084 64.4824 17.7851 62.965C19.0543 61.0436 20.6804 59.3836 22.5751 58.075C23.1751 57.675 23.4751 58.165 23.4651 59.005C23.4321 60.0813 23.0844 61.1242 22.4651 62.005C22.1251 62.425 21.8451 62.875 21.5351 63.305C21.3751 63.525 21.2351 63.745 21.1051 63.965L20.6451 64.595C20.0889 65.4193 19.5911 66.2814 19.1551 67.175C18.7233 67.9604 18.4131 68.8066 18.2351 69.685C18.1666 70.0137 18.1397 70.3497 18.1551 70.685C18.2051 70.905 18.2051 71.095 18.2951 71.195C18.3851 71.295 18.3451 71.265 18.3851 71.305C18.4101 71.3492 18.4547 71.3789 18.5051 71.385C18.5051 71.385 18.5651 71.445 18.6351 71.445C18.7014 71.4347 18.7688 71.4347 18.8351 71.445C19.2944 71.3908 19.7373 71.2409 20.1351 71.005C21.1895 70.3788 22.1663 69.6303 23.0451 68.775C25.184 66.7818 27.1079 64.5697 28.7851 62.175C29.8533 60.6929 30.8349 59.1504 31.7251 57.555C32.3851 56.355 33.0451 55.145 33.5751 53.905C33.7151 53.595 33.8251 53.275 33.9451 52.965C34.0051 52.815 34.0651 52.655 34.1151 52.495L34.2351 52.125C34.3655 51.7426 34.4527 51.3468 34.4951 50.945C34.6419 50.3767 34.3926 49.7801 33.8851 49.485C33.3851 49.215 32.7451 49.595 32.3851 49.875C32.2051 50.015 32.0551 50.205 31.9251 50.305C31.83 50.3907 31.7117 50.4463 31.5851 50.465C31.5851 50.465 31.3251 50.465 31.2051 50.465C31.0588 50.48 30.9114 50.48 30.7651 50.465C30.4857 50.4381 30.2159 50.3493 29.9751 50.205C29.7031 50.0035 29.4579 49.7683 29.2451 49.505C29.0476 49.287 28.8734 49.0491 28.7251 48.795C28.5508 48.3538 28.4889 47.8761 28.5451 47.405C28.5429 47.1302 28.5974 46.8579 28.7051 46.605C28.762 46.4734 28.8289 46.3464 28.9051 46.225L29.0251 46.035L29.0951 45.935C29.0951 45.845 29.0951 45.845 29.0951 45.835L29.1751 45.755C29.8531 45.1865 30.5643 44.6589 31.3051 44.175C32.0154 43.7194 32.8063 43.4037 33.6351 43.245C34.0156 43.1874 34.4005 43.164 34.7851 43.175H35.3651L35.9151 43.295C36.6807 43.4857 37.4011 43.8256 38.0351 44.295L38.8851 45.295C39.1534 45.6215 39.3786 45.9811 39.5551 46.365C39.7251 46.755 39.8251 47.185 39.9751 47.605C40.1251 48.025 40.0951 48.525 40.1551 48.985C40.2151 49.445 40.1551 49.985 40.1051 50.475C40.0397 50.9862 39.9327 51.4912 39.7851 51.985C39.6791 52.5113 39.5354 53.0293 39.3551 53.535L39.1551 54.135C39.1051 54.285 39.0551 54.435 38.9951 54.575C37.7347 57.6779 36.0521 60.5921 33.9951 63.235L33.9051 63.175Z" fill="white"/>
<path d="M38.9852 66.635C37.5627 68.4911 36.0158 70.2485 34.3552 71.895C33.7252 72.475 33.1752 73.115 32.4952 73.645C31.2945 74.5882 30.0204 75.4342 28.6852 76.175C27.9905 76.5605 27.2686 76.8947 26.5252 77.175C25.7369 77.4917 24.9031 77.6807 24.0552 77.735C23.2164 77.766 22.3845 77.5727 21.6452 77.175C20.7901 76.7682 20.1651 75.9961 19.9452 75.075C19.8448 74.4672 19.9176 73.8434 20.1552 73.275C20.3496 72.8003 20.6311 72.3662 20.9852 71.995C21.5556 71.3487 22.232 70.8042 22.9852 70.385C23.4552 70.145 23.6852 70.525 23.7252 71.195C23.7736 71.995 23.6649 72.7968 23.4052 73.555C23.289 73.8112 23.2018 74.0795 23.1452 74.355C23.1452 74.455 23.1452 74.355 23.1452 74.415C23.1452 74.415 23.0852 74.415 23.3052 74.535C23.6367 74.72 24.0246 74.777 24.3952 74.695C24.6938 74.6608 24.9863 74.5868 25.2652 74.475C25.5652 74.315 25.8752 74.205 26.1852 74.015C27.7389 73.0026 29.0945 71.7148 30.1852 70.215C31.5152 68.605 32.9552 67.045 34.1852 65.295C34.9522 64.2405 35.6568 63.1419 36.2952 62.005C37.2928 60.3809 38.0063 58.5988 38.4052 56.735C38.5252 56.1527 38.4587 55.5474 38.2152 55.005C38.1865 54.9193 38.1303 54.8455 38.0552 54.795C38.0114 54.7599 37.9491 54.7599 37.9052 54.795L38.1252 54.615L38.2452 54.525C38.3152 54.525 38.4052 54.365 38.4452 54.335C38.4873 54.2928 38.5242 54.2458 38.5552 54.195C38.6552 54.055 38.5552 54.085 38.5552 54.375C38.5348 54.5712 38.5348 54.7689 38.5552 54.965C38.5552 55.095 38.5552 55.225 38.5552 55.355V55.425L38.3352 55.475C37.9158 55.5861 37.4747 55.5861 37.0552 55.475C36.6202 55.2681 36.2527 54.9422 35.9952 54.535C35.8352 54.315 35.6652 54.115 35.5352 53.905C35.332 53.5473 35.2646 53.1284 35.3452 52.725C35.4115 52.2298 35.6319 51.768 35.9752 51.405C36.2956 51.0204 36.6694 50.6836 37.0852 50.405C37.9367 49.8507 38.9979 49.7249 39.9552 50.065C40.6128 50.2543 41.2161 50.597 41.7152 51.065C41.8286 51.165 41.9286 51.265 42.0152 51.365C42.1052 51.465 42.1652 51.545 42.2352 51.635L42.6252 52.195C42.8417 52.5468 43.0162 52.9227 43.1452 53.315C43.2747 53.6372 43.3686 53.9725 43.4252 54.315C43.6152 55.4289 43.5948 56.5686 43.3652 57.675C43.1957 58.5759 42.9447 59.4595 42.6152 60.315C41.6707 62.5832 40.4552 64.7288 38.9952 66.705L38.9852 66.635Z" fill="white"/>
</svg>
