<svg width="106" height="122" viewBox="0 0 106 122" fill="none" xmlns="http://www.w3.org/2000/svg">
<path d="M47.8008 26.1978C58.6218 20.8428 66.8921 11.4337 70.8146 0.0150973C71.0656 -0.675159 75.1444 22.5112 88.8867 26.9822C88.8867 26.9822 72.2578 34.9515 68.3202 50.7333C68.3359 50.9529 67.379 38.1988 47.8008 26.1978Z" fill="#231F20"/>
<path d="M71.7866 101.295C80.6961 96.8797 87.4973 89.1198 90.7059 79.7084C90.9099 79.1436 94.2513 98.2198 105.609 101.891C105.609 101.891 91.9453 108.448 88.6979 121.422C88.6508 121.594 87.8665 111.115 71.7866 101.295Z" fill="#231F20"/>
<path d="M0 72.3038C8.5996 68.035 15.1713 60.5502 18.2918 51.4706C18.4801 50.9058 21.7274 69.3232 32.6931 72.8686C32.6931 72.8686 19.4841 79.1436 16.3622 91.6937C16.2838 91.8977 15.5308 81.7792 0 72.3038Z" fill="#231F20"/>
</svg>
