<svg width="95" height="100" viewBox="0 0 95 100" fill="none" xmlns="http://www.w3.org/2000/svg">
<path d="M49.2984 50.9685C50.1373 46.8815 50.8196 42.7232 51.3516 38.5247C51.6126 36.9768 51.5971 35.45 51.8322 33.9171C52.6093 28.5032 53.2622 23.034 53.6409 17.55C53.862 15.1129 53.8982 12.6556 53.9321 10.2343C53.9599 8.68244 53.8884 7.11867 54.0105 5.57015C54.1326 4.02164 54.3737 2.43911 54.6607 0.876222C54.8573 -0.103297 55.2734 0.0374925 55.8167 0.878518C56.6808 2.1274 57.3166 3.51967 57.6943 4.99063C57.7717 5.38472 57.8765 5.78613 57.9316 6.18156L58.0682 7.33821L58.2922 9.72614C58.4283 11.3219 58.5507 12.914 58.6335 14.5174C58.822 17.7298 58.7517 20.9522 58.4234 24.1534C58.0412 28.0114 58.3493 32.0251 58.114 36.0176C58.0258 38.2047 57.8159 40.3813 57.5478 42.5568C57.2796 44.7324 56.9978 46.9042 56.6837 49.0601C56.2705 51.7312 55.7974 54.3985 55.2644 57.0618C54.4848 61.0915 53.406 65.063 52.3458 69.0468C51.5917 72.184 50.6537 75.2741 49.5367 78.3012C49.3102 78.9919 48.9959 79.6507 48.6015 80.2614C47.0028 82.5123 45.9401 82.8718 44.4648 82.4765C44.1273 82.406 43.7962 82.3075 43.475 82.182C42.4844 81.7262 42.307 80.3391 42.6403 78.5763C42.7477 77.9023 42.8764 77.2852 42.9515 76.5953C43.0598 75.9504 43.2133 75.3139 43.4106 74.6905C43.7287 73.4214 44.0754 72.182 44.3785 70.887C44.6816 69.5919 44.92 68.2649 45.3511 67.0115L45.9068 65.074L46.4325 63.0846C47.4644 59.1518 48.4162 55.0805 49.1085 50.9395L49.2984 50.9685Z" fill="#231F20"/>
<path d="M37.3061 84.5774C38.261 86.4562 39.6084 88.108 41.2572 89.4207C41.8117 89.8289 42.474 90.0649 43.1617 90.0994C43.3002 90.0194 43.4655 90.0857 43.6737 90.0463L44.3959 89.8372C44.911 89.66 45.4132 89.4472 45.8989 89.2004C47.4226 88.3443 48.8571 87.3382 50.1808 86.197C52.7266 84.1081 55.0914 81.808 57.25 79.3212C59.469 76.7986 61.5539 74.1611 63.496 71.4196C65.208 68.9647 66.8389 66.4296 68.3842 63.8862C69.3655 62.2458 70.3095 60.5808 71.2694 58.8834C72.2293 57.186 73.1186 55.5063 73.9 53.8197C74.343 52.7671 74.546 52.9387 74.598 54.0287C74.5391 55.8135 74.1878 57.5767 73.5582 59.2478C72.1197 62.9805 70.4546 66.622 68.5722 70.1517C66.5175 73.6327 64.2055 76.9553 61.6555 80.0917C60.1283 81.9665 58.6051 83.9082 56.9676 85.812C55.3363 87.777 53.532 89.5916 51.5763 91.2341C50.4426 92.1654 49.2322 92.9994 47.9582 93.7272C46.5154 94.5648 44.9153 95.0955 43.2579 95.2862C42.7829 95.2833 42.3091 95.3028 41.8537 95.254C41.3983 95.2051 40.9475 95.0843 40.5327 94.9659C40.1179 94.8474 39.7077 94.657 39.3139 94.5149C38.9339 94.3372 38.5645 94.138 38.2073 93.9182C36.8869 93.0941 35.6989 92.0748 34.6836 90.895C32.4373 88.2248 30.58 85.2502 29.1669 82.0597C27.0885 77.4221 25.3405 72.6434 23.9358 67.7593C22.6734 64.0523 21.6196 60.2775 20.7796 56.4526C20.6071 55.5938 20.4086 54.75 20.3141 53.8462C20.1101 52.6451 20.1895 51.413 20.5461 50.2481C20.8638 49.4871 21.5325 48.9287 22.338 48.7517C22.718 48.6216 23.1104 48.5305 23.5089 48.4798C24.157 48.4618 24.7704 48.7721 25.1399 49.3048C25.6243 49.9906 25.9541 50.7733 26.1065 51.5989C26.8184 54.652 27.7392 57.8269 28.6937 61.0402C29.6482 64.2534 30.4891 67.59 31.5702 70.8225C32.9858 75.5919 34.9527 80.1799 37.431 84.4937L37.3061 84.5774Z" fill="#231F20"/>
</svg>
