<svg width="74" height="71" viewBox="0 0 74 71" fill="none" xmlns="http://www.w3.org/2000/svg">
<path d="M55.8737 69.8214C56.0737 70.2214 55.6137 70.5414 54.8737 70.9114C54.5234 71.0296 54.144 71.0296 53.7937 70.9114C53.5672 70.6679 53.3599 70.4071 53.1737 70.1314C52.9649 69.6076 52.84 69.0542 52.8037 68.4914C52.8037 68.0714 52.7237 67.6214 52.7037 67.2214C52.6837 66.8214 52.7037 66.4514 52.7037 66.2214C52.7292 65.2722 52.9082 64.3334 53.2337 63.4414C53.9207 61.6442 54.8711 59.9591 56.0537 58.4414C56.3363 58.0978 56.6743 57.8038 57.0537 57.5714L60.6737 55.0414C60.9028 54.9249 61.0963 54.7487 61.2337 54.5314C61.8687 53.9922 62.6022 53.5813 63.3937 53.3214C63.9337 53.1314 64.4937 52.9614 64.9437 52.8314C65.2729 52.7626 65.6075 52.7224 65.9437 52.7114C66.613 52.7317 67.2806 52.7884 67.9437 52.8814C68.5869 52.9499 69.2249 53.0602 69.8537 53.2114C70.0237 53.2614 70.2237 53.2114 70.3637 53.4314C70.7037 53.9714 71.0737 53.9114 71.4437 53.9814C71.953 54.112 72.4388 54.3212 72.8837 54.6014C73.1184 54.8117 73.3088 55.0667 73.4437 55.3514C73.6037 55.6014 73.2837 56.3014 73.2037 56.3514C72.9337 56.5414 73.0137 56.9214 72.9437 57.2314C72.9241 57.3397 72.8974 57.4466 72.8637 57.5514C72.4245 57.8032 71.9582 58.0045 71.4737 58.1514C71.0161 58.3454 70.5489 58.5157 70.0737 58.6614H69.5437C69.1715 58.689 68.8011 58.7357 68.4337 58.8014L67.8337 58.9014L67.3037 59.0614L66.6637 59.2614C66.4832 59.3067 66.2942 59.3067 66.1137 59.2614C65.7048 59.3973 65.3124 59.5784 64.9437 59.8014C64.5685 60.0085 64.2046 60.2355 63.8537 60.4814C63.4306 60.775 62.9371 60.951 62.4237 60.9914C62.3163 60.9914 62.2156 61.0436 62.1537 61.1314L61.0837 61.9114L60.5237 62.2914L60.0037 62.7414C59.8263 62.8905 59.6654 63.0581 59.5237 63.2414L59.1237 63.8114C59.0539 63.8695 58.9804 63.9229 58.9037 63.9714C58.8046 64.0244 58.7163 64.0956 58.6437 64.1814C57.9956 65.0863 57.5209 66.1035 57.2437 67.1814C57.1294 67.464 56.9888 67.7352 56.8237 67.9914C56.6933 68.2795 56.596 68.5814 56.5337 68.8914C56.5337 68.9814 56.3737 69.1414 56.2037 69.3214C56.0337 69.5014 55.8437 69.7414 55.8737 69.8214Z" fill="#231F20"/>
<path d="M34.3941 63.8916C34.5202 64.8071 34.1962 65.7272 33.5241 66.3616C33.3141 66.6116 32.6141 66.6816 32.5241 66.3616C32.2541 65.8416 31.9641 65.3616 31.7241 64.7516C31.6036 64.3978 31.5199 64.0325 31.4741 63.6616C31.2975 62.9301 31.1639 62.1888 31.0741 61.4416C30.9915 60.5842 30.9581 59.7228 30.9741 58.8616V57.7316L31.0341 56.8316C31.1484 54.9167 31.5218 53.0262 32.1441 51.2116C33.4088 47.5073 35.2479 44.0248 37.5941 40.8916C38.1035 40.1908 38.6943 39.553 39.3541 38.9916C41.6741 37.1216 43.8841 35.2416 46.2341 33.4616C46.6553 33.1899 47.0301 32.8522 47.3441 32.4616C47.7485 32.0694 48.1984 31.7269 48.6841 31.4416C49.5647 30.8748 50.4761 30.3573 51.4141 29.8916C52.3739 29.4125 53.3586 28.9852 54.3641 28.6116C54.9659 28.3916 55.5803 28.2079 56.2041 28.0616C58.8445 27.6035 61.5302 27.4625 64.2041 27.6416C64.602 27.6222 64.9972 27.7158 65.3441 27.9116C66.0487 28.388 66.874 28.655 67.7241 28.6816C68.2784 28.8019 68.8231 28.9623 69.3541 29.1616C69.8741 29.3916 70.3541 29.6716 70.8841 29.9416C71.3542 30.2932 71.7776 30.7031 72.1441 31.1616C72.4941 31.5316 71.9841 32.0716 71.8141 32.0916C71.3041 32.1516 71.5241 32.6016 71.4441 32.8816C71.4241 32.9838 71.3869 33.0819 71.3341 33.1716C70.3622 33.2398 69.3943 33.3566 68.4341 33.5216C67.0241 33.8016 65.6941 34.1316 65.4341 34.1716C64.1718 34.297 62.9169 34.4873 61.6741 34.7416C60.238 35.0781 58.8381 35.5537 57.4941 36.1616C57.0749 36.3153 56.6382 36.416 56.1941 36.4616C55.2134 36.8926 54.2701 37.4044 53.3741 37.9916C52.0441 38.8016 50.8041 39.7616 50.7041 39.8216C50.173 40.1484 49.659 40.5022 49.1641 40.8816C48.6411 41.25 48.0688 41.5429 47.4641 41.7516C47.2271 41.8499 47.0151 42.0003 46.8441 42.1916C46.0541 42.9416 45.2541 43.6616 44.4541 44.4016C43.6223 45.1099 42.8279 45.8609 42.0741 46.6516C41.6857 47.0551 41.3311 47.4899 41.0141 47.9516C40.6841 48.3916 40.3641 48.8516 40.0141 49.3216C39.8821 49.4788 39.7419 49.629 39.5941 49.7716C39.401 49.9453 39.2357 50.1476 39.1041 50.3716C37.6614 52.61 36.6129 55.0791 36.0041 57.6716C35.5331 59.0249 35.1981 60.4218 35.0041 61.8416C34.7324 62.5027 34.528 63.1895 34.3941 63.8916Z" fill="#231F20"/>
<path d="M3.59394 56.3416C3.63434 56.7139 3.63434 57.0894 3.59394 57.4616C3.56105 57.8008 3.49405 58.1359 3.39394 58.4616C3.15802 59.1478 2.82097 59.795 2.39394 60.3816C2.11394 60.7716 1.23394 60.7816 1.07394 60.3116C0.783939 59.4116 0.483939 58.4816 0.243939 57.5216C0.160816 56.9084 0.117393 56.2905 0.113939 55.6716C0.113939 55.1716 0.113939 54.5816 0.0339388 53.9516C-0.0460612 53.3216 0.0339388 52.6316 0.0839388 51.9516C0.169448 49.4049 0.443532 46.8679 0.903939 44.3616C1.45124 41.2449 2.42013 38.2171 3.78394 35.3616C6.59692 29.6562 10.2398 24.3991 14.5939 19.7616C15.561 18.7379 16.604 17.7885 17.7139 16.9216C21.5439 13.9916 25.3439 11.1216 29.3539 8.45164C30.0726 8.07653 30.7301 7.59435 31.3039 7.02164C32.0082 6.41408 32.776 5.88434 33.5939 5.44164C34.2339 5.10164 34.9239 4.66164 35.7139 4.29164L38.1839 3.17164C40.7595 2.06592 43.4396 1.22168 46.1839 0.651636C50.4836 -0.017668 54.8477 -0.172091 59.1839 0.191636C59.8091 0.156839 60.4335 0.273476 61.0039 0.531636C62.1872 1.19289 63.4947 1.6015 64.8439 1.73164C65.7339 1.97164 66.6139 2.20164 67.4839 2.48164C68.3539 2.76164 69.1839 3.17164 70.0139 3.54164C70.7914 4.03129 71.5153 4.60107 72.1739 5.24164C72.7939 5.77164 72.0239 6.44164 71.7439 6.45164C70.9239 6.45164 71.3339 7.07164 71.2439 7.45164C71.2248 7.58841 71.1734 7.71867 71.0939 7.83164C70.5775 7.84145 70.0614 7.79788 69.5539 7.70164L68.8439 7.60164H68.0239L66.2639 7.53164L64.4739 7.62164C63.9349 7.63487 63.3972 7.68162 62.8639 7.76164C62.2246 7.86246 61.5804 7.92922 60.9339 7.96164C60.8739 7.96164 60.0339 8.06164 58.7939 8.06164C57.2545 8.14371 55.7216 8.32071 54.2039 8.59164C51.6431 9.02874 49.1311 9.71535 46.7039 10.6416C45.9648 10.8862 45.205 11.0636 44.4339 11.1716C44.3439 11.1716 43.6739 11.4816 42.7239 11.8916C41.7739 12.3016 40.5639 12.9516 39.3439 13.5516C36.9139 14.8016 34.6039 16.2616 34.4139 16.3516C33.4139 16.8516 32.5439 17.4716 31.5939 18.0116C30.6543 18.6057 29.6472 19.0858 28.5939 19.4416C28.1901 19.6292 27.8161 19.8752 27.4839 20.1716C24.4471 22.4589 21.5393 24.9126 18.7739 27.5216C18.1039 28.2216 17.4539 28.9516 16.7739 29.6816L14.9739 31.9616C14.7439 32.2316 14.4839 32.4716 14.2439 32.7316C13.9388 33.0486 13.6517 33.3825 13.3839 33.7316C12.0506 35.6316 10.8373 37.5816 9.74394 39.5816C9.16394 40.5816 8.66394 41.5816 8.13394 42.6316C7.60394 43.6816 7.24394 44.7516 6.88394 45.8316C6.73782 46.2819 6.56416 46.7227 6.36394 47.1516C6.11394 47.7516 5.78394 48.4616 5.55394 49.2016C5.32394 49.9416 5.03394 50.6816 4.84394 51.3216C4.65394 51.9616 4.59394 52.5316 4.59394 52.8416C4.4266 53.4389 4.2263 54.0265 3.99394 54.6016C3.78205 55.1607 3.64748 55.7461 3.59394 56.3416Z" fill="#231F20"/>
</svg>
