<svg width="82" height="77" viewBox="0 0 82 77" fill="none" xmlns="http://www.w3.org/2000/svg">
<path d="M7.61719 14.8675C7.61719 14.8675 12.0972 9.5275 13.9172 11.1075C15.5672 12.5375 15.8372 15.5175 15.8372 15.5175L10.1972 21.5775L7.61719 14.8675Z" fill="#231F20"/>
<path d="M27.4774 4.25749C17.5574 11.1975 10.7974 30.1275 12.5674 33.5275C13.5174 35.3575 2.56738 32.1575 2.56738 32.1575L23.5674 2.67749L27.4774 4.25749Z" fill="#231F20"/>
<path d="M19.5873 64.2674C25.7939 62.2141 32.0873 60.414 38.4673 58.8674C40.7873 58.3074 43.0973 57.6674 45.4673 57.2174C49.5173 56.4574 53.6073 55.8674 57.7273 55.4874C58.7273 55.3974 59.7273 55.3074 60.8073 55.2374L63.6473 55.0674C64.0956 55.0625 64.5432 55.029 64.9873 54.9674C65.0919 54.9502 65.1932 54.9164 65.2873 54.8674C65.3762 54.791 65.4081 54.6673 65.3673 54.5574L65.0973 53.9574L64.9773 53.7074L64.6973 53.1274L64.0973 51.9374L62.8473 49.4374C62.0073 47.7774 61.1973 46.0974 60.3973 44.4374C59.3973 42.2774 58.3973 40.0974 57.5273 37.8374C57.0977 36.6948 56.7305 35.5298 56.4273 34.3474C56.2593 33.7531 56.152 33.1433 56.1073 32.5274C56.0268 31.904 55.9868 31.276 55.9873 30.6474C55.9873 29.0474 56.8973 29.2474 58.0973 30.2774C58.8045 30.9023 59.4724 31.5702 60.0973 32.2774C60.8457 33.2013 61.4308 34.2464 61.8273 35.3674C62.8773 38.2774 64.1373 41.1874 65.4573 44.0874C66.1239 45.5407 66.7906 46.9907 67.4573 48.4374L68.4573 50.6074L68.5873 50.8774L68.8473 51.3774L69.3873 52.4274C69.7473 53.1274 70.1173 53.8174 70.3873 54.5074L70.5573 55.3974V56.1374C70.5435 56.3761 70.4964 56.6117 70.4173 56.8374C70.3263 57.1108 70.1912 57.3676 70.0173 57.5974C69.2573 58.4914 68.1837 59.0603 67.0173 59.1874C66.3273 59.2874 65.6473 59.3774 64.9273 59.4174L63.8673 59.4874H63.2373L60.9273 59.5674C55.2273 59.7574 49.4073 61.0074 43.7073 62.2674C37.4373 63.6574 31.2073 65.3674 25.0473 67.3474C23.1473 67.9474 21.2673 68.5874 19.3773 69.2274C17.4873 69.8674 16.0173 70.4574 13.2873 71.6574L12.7573 71.8774L11.3973 72.0574L10.7173 72.1474C10.4873 72.2474 10.2673 72.0874 10.0873 71.9374C9.40054 71.2193 8.8934 70.3489 8.60727 69.3974C8.43727 68.8874 8.28727 68.3974 8.15727 67.8374L7.86727 66.6474C7.70727 65.9074 7.55727 65.1574 7.40727 64.4174C6.84727 61.4174 6.40727 58.4174 6.06727 55.4974C5.361 50.7843 5.02663 46.0229 5.06727 41.2574C5.07704 40.1773 5.1505 39.0988 5.28727 38.0274C5.47966 36.5437 6.0025 35.1221 6.81727 33.8674C7.36045 33.2415 8.09519 32.8126 8.90727 32.6474C9.16957 32.5694 9.43685 32.5093 9.70727 32.4674C10.0673 32.4674 10.1273 32.8674 10.2773 33.6374C10.5124 34.643 10.57 35.682 10.4473 36.7074C10.3373 38.5774 10.2673 40.5074 10.2873 42.4974C10.3073 44.4874 10.4173 46.4974 10.5873 48.5774C10.9273 52.6874 11.4273 56.9074 12.1673 61.0474C12.4773 62.8074 12.8473 64.6474 13.2573 66.2474C13.2573 66.2474 13.2573 66.3474 13.2573 66.3374L13.8873 66.1474H13.9673L14.1373 66.0874L14.6173 65.9174L15.6173 65.5674C16.9173 65.0974 18.2273 64.6274 19.5373 64.1874L19.5873 64.2674Z" fill="#231F20"/>
<path d="M5.71728 32.3774C5.66032 32.4455 5.61627 32.5235 5.58728 32.6074C5.58728 32.7174 5.66728 32.7374 5.72728 32.7574C5.81029 32.7679 5.89428 32.7679 5.97728 32.7574H6.17728H6.28728L6.76728 32.6474C9.37728 31.9974 12.0573 31.1874 14.7673 30.3774C16.7173 29.7874 18.6373 29.0774 20.6073 28.5074C27.5822 26.4192 34.6923 24.8121 41.8873 23.6974C45.1104 23.2053 48.3591 22.8981 51.6173 22.7774C53.7353 22.6883 55.8571 22.7887 57.9573 23.0774C59.0228 23.2211 60.0736 23.4587 61.0973 23.7874C62.1369 24.1353 63.1414 24.5806 64.0973 25.1174C65.2673 25.8274 64.6973 26.4374 63.4073 26.7774C62.6244 26.9908 61.8249 27.138 61.0173 27.2174C60.0238 27.3789 59.0108 27.3789 58.0173 27.2174C54.1285 26.6783 50.1871 26.6346 46.2873 27.0874C42.2873 27.4874 38.2873 28.1874 34.2873 28.9574C29.3439 30.0787 24.4746 31.5047 19.7073 33.2274L11.7073 35.8274C10.3473 36.2474 8.97728 36.6574 7.56728 37.0274C6.5377 37.3173 5.48821 37.5313 4.42728 37.6674C3.5129 37.7987 2.58082 37.727 1.69728 37.4574C1.13991 37.3293 0.642678 37.0155 0.287284 36.5674C0.0679225 36.1029 -0.0284894 35.5899 0.00728413 35.0774C0.119487 33.8809 0.458885 32.7168 1.00728 31.6474L1.43728 30.7674L1.85728 29.9674L2.50728 28.7974C2.94728 28.0274 3.40728 27.2674 3.86728 26.5174C6.70684 22.0325 9.77073 17.6937 13.0473 13.5174C15.4745 10.2136 18.0853 7.04858 20.8673 4.03741C21.5073 3.37741 22.1273 2.71741 22.8673 2.10741C25.5673 -0.142592 27.0073 -0.382592 28.1573 0.417408C28.4371 0.577981 28.6957 0.772818 28.9273 0.997408C29.2103 1.43759 29.1696 2.01158 28.8273 2.40741C28.3411 3.11461 27.7588 3.75071 27.0973 4.29741C24.5922 6.68122 22.2534 9.23387 20.0973 11.9374C17.8073 14.7174 15.5573 17.6374 13.3873 20.6374C11.7873 22.8674 10.2273 25.1374 8.74728 27.4474C8.01728 28.5974 7.29728 29.7574 6.63728 30.9274L6.14728 31.8074L5.92728 32.2074C5.90161 32.239 5.87822 32.2725 5.85728 32.3074L5.71728 32.3774Z" fill="#231F20"/>
<path d="M49.9773 19.9674L44.9773 16.5174C44.3673 16.0974 43.6873 15.7674 43.0773 15.3274C40.9562 13.7009 38.9295 11.9548 37.0073 10.0974C36.1773 9.2474 35.2173 8.5474 34.3473 7.7674C33.143 6.83336 32.1597 5.64512 31.4673 4.2874C31.2473 3.8474 31.7873 3.4474 32.5973 3.2174C33.4558 2.91424 34.3961 2.93918 35.2373 3.2874C35.5373 3.4874 35.8473 3.6874 36.1673 3.8574L36.6373 4.1374L37.0373 4.4874C37.5573 4.9674 38.0373 5.4874 38.6273 5.9074C39.6273 6.9074 40.7273 7.8274 41.7473 8.9074C42.3824 9.52961 43.087 10.0766 43.8473 10.5374L46.1273 12.0074C47.7673 13.1274 49.4473 14.2474 51.1273 15.3674L54.2873 17.4274C55.8973 18.4274 57.4073 19.6874 58.9873 20.7574C60.2073 21.5974 61.5673 22.2274 62.6973 23.1774C62.9641 23.3635 63.218 23.5673 63.4573 23.7874C64.3273 24.6474 64.4573 25.0974 64.1073 25.8674C64.0273 26.0374 63.9673 26.2174 63.8773 26.3774C63.5673 26.8874 62.8773 26.9674 62.0073 26.6574C61.3773 26.4274 60.7873 26.1574 60.1473 25.9374L59.2073 25.5874C58.9073 25.4674 58.6373 25.2874 58.3473 25.1374C57.1973 24.5374 56.0873 23.8674 54.9373 23.2174C53.2373 22.2874 51.6273 21.1374 49.9373 20.0674L49.9773 19.9674Z" fill="#231F20"/>
<path d="M4.28711 8.93739C4.28711 8.87739 4.33711 8.83739 4.28711 8.76739L4.34711 8.60739C4.66664 8.00135 5.08199 7.45092 5.57711 6.97739C5.93744 6.63642 6.33299 6.33473 6.75711 6.07739C7.50039 5.62255 8.28772 5.24396 9.10711 4.94739C9.69561 4.69343 10.3044 4.48937 10.9271 4.33739C11.2271 4.27739 11.4671 4.23739 11.8171 4.19739C12.2332 4.12692 12.6555 4.10011 13.0771 4.11739C13.853 4.1213 14.6133 4.33557 15.2771 4.73739C15.5954 4.92625 15.855 5.19973 16.0271 5.52739C16.0968 5.68492 16.1504 5.84909 16.1871 6.01739C16.2349 6.19056 16.2651 6.36813 16.2771 6.54739C16.3072 6.9368 16.3072 7.32797 16.2771 7.71739C16.2771 8.10739 16.2771 8.51739 16.2771 8.71739C16.2635 9.59543 16.3003 10.4735 16.3871 11.3474C16.553 12.4678 16.5192 13.6088 16.2871 14.7174C16.1771 15.0674 15.5071 15.0374 14.7871 14.7774C14.0671 14.5174 13.2571 14.0074 13.0871 13.3774C12.7672 12.2927 12.6022 11.1682 12.5971 10.0374V9.19739V8.77739C12.5971 8.67739 12.5971 8.69739 12.5971 8.67739H12.6571C12.816 8.55234 12.9258 8.37531 12.9671 8.17739C12.9671 7.88739 12.7371 7.84739 12.5271 7.84739H12.3671H12.0671L11.1871 8.00739C10.507 8.11963 9.83789 8.29026 9.18711 8.51739C8.88108 8.62489 8.58358 8.75526 8.29711 8.90739C8.06548 9.02822 7.84467 9.16874 7.63711 9.32739C7.53828 9.40954 7.4538 9.50754 7.38711 9.61739C7.31135 9.76533 7.28009 9.93205 7.29711 10.0974C7.32518 10.3895 7.36857 10.6799 7.42711 10.9674C7.71133 12.3316 8.10939 13.6696 8.61711 14.9674C9.06759 15.9298 9.62439 16.8388 10.2771 17.6774C10.3971 17.8674 10.5671 18.0174 10.6871 18.2074C10.8739 18.4413 10.9602 18.7399 10.9271 19.0374C10.8338 19.3417 10.6693 19.6194 10.4471 19.8474C10.3171 20.0074 10.2071 20.1674 10.0771 20.3174C9.88428 20.5551 9.59319 20.6915 9.28711 20.6874C8.92172 20.6796 8.56953 20.5493 8.28711 20.3174C6.70286 18.7594 5.52509 16.8365 4.85711 14.7174C4.56684 13.9315 4.346 13.1218 4.19711 12.2974C4.11711 11.8874 4.04711 11.4374 3.99711 10.9674V10.5774C3.97688 10.398 3.97688 10.2168 3.99711 10.0374C4.0003 9.66708 4.04389 9.29823 4.12711 8.93739H4.28711Z" fill="#231F20"/>
<path d="M19.9973 48.0074C20.6273 48.6774 30.1673 45.8874 30.7073 45.6174C31.2473 45.3474 29.9973 38.5374 29.0473 36.5574C28.5273 35.4674 18.5573 37.3274 18.5573 37.3274C18.2073 37.3874 18.5773 46.5174 19.9973 48.0074Z" fill="#231F20"/>
<path d="M49.8771 42.9475C49.4871 43.7775 39.5471 44.0975 38.9571 44.0175C38.3671 43.9375 37.4171 37.0675 37.7071 34.8675C37.8571 33.6675 47.9171 32.3275 47.9171 32.3275C48.2871 32.2975 50.7571 41.0875 49.8771 42.9475Z" fill="#231F20"/>
<path d="M65.7674 58.9574C69.1798 58.0111 72.6417 57.2533 76.1374 56.6874C76.5274 56.6074 76.9074 56.5274 77.1374 56.4574H77.2674L77.3374 56.6074L77.4374 56.8474C77.5574 57.1474 77.7774 57.5074 77.8774 57.7074C77.9378 57.8264 78.008 57.9401 78.0874 58.0474C78.1404 58.1387 78.2006 58.2256 78.2674 58.3074L78.4374 58.4974C78.481 58.5378 78.5278 58.5746 78.5774 58.6074C78.7574 58.7074 78.6674 58.6074 78.4374 58.7574C78.3841 58.7893 78.3338 58.8261 78.2874 58.8674L76.8174 60.2374V60.1774L76.6774 60.1074L76.4074 59.9474C76.2736 59.8898 76.1367 59.8397 75.9974 59.7974C74.5921 59.3645 73.1366 59.1157 71.6674 59.0574C69.2033 59.0061 66.7385 59.1097 64.2874 59.3674C55.518 60.0907 46.81 61.4273 38.2274 63.3674C34.3874 64.2074 30.5874 65.2674 26.8774 66.4474C24.5074 67.2374 22.1074 67.9374 19.7274 68.6774L16.1474 69.7974L14.2874 70.3274C13.6974 70.5174 13.0674 70.6374 12.4674 70.8274C10.9474 71.2174 11.0174 70.9374 11.9774 69.8274C13.5125 68.0271 15.3972 66.5574 17.5174 65.5074C18.6974 64.9274 19.8874 64.3574 21.0774 63.8174L22.8774 63.0074L24.7274 62.3674C27.2074 61.5274 29.7274 60.7774 32.2074 60.0674C37.242 58.6289 42.3666 57.5264 47.5474 56.7674C53.7674 55.8974 60.1574 54.5474 66.7074 54.2074C68.5325 54.1024 70.3622 54.1024 72.1874 54.2074C74.1787 54.269 76.1472 54.6506 78.0174 55.3374L78.8274 55.7574L79.2274 55.9674C79.3574 56.0574 79.4974 56.1774 79.6374 56.2874L80.0374 56.6274L80.2874 56.8674L80.3874 56.9474L80.5874 57.1974L80.6874 57.3374L80.8174 57.5674C80.915 57.746 80.9858 57.9381 81.0274 58.1374C81.0726 58.392 81.0726 58.6527 81.0274 58.9074C81.0067 59.1642 80.9389 59.4151 80.8274 59.6474C80.6837 59.9604 80.4759 60.2398 80.2174 60.4674C80.079 60.585 79.9319 60.692 79.7774 60.7874C79.447 60.9796 79.0944 61.1307 78.7274 61.2374C78.4574 61.3274 78.2174 61.3874 77.9774 61.4474C77.4974 61.5574 77.0574 61.6574 76.6174 61.7374C74.8674 62.0874 73.1974 62.4074 71.5374 62.7374C67.4464 63.6003 63.4529 64.8734 59.6174 66.5374C55.4946 68.3404 51.636 70.6953 48.1474 73.5374L48.3174 73.3674C48.1204 73.1751 47.8984 73.0103 47.6574 72.8774C47.574 72.8173 47.4784 72.7763 47.3774 72.7574C47.3291 72.7389 47.2757 72.7389 47.2274 72.7574C47.2774 72.7181 47.3098 72.6605 47.3174 72.5974C47.4189 72.3586 47.483 72.1057 47.5074 71.8474V71.5974C47.5074 71.4974 47.5074 71.5974 47.5074 71.5974H47.6174H47.8674C48.2474 71.5974 48.6974 71.4774 49.1274 71.3874C50.0074 71.2074 50.9074 70.9774 51.7974 70.7474C56.6374 69.4974 61.3274 67.8774 66.3474 66.8574C67.4574 66.6374 68.5474 66.3974 69.7274 66.2774C71.3734 66.0056 73.0614 66.15 74.6374 66.6974C75.1484 66.9152 75.5957 67.2593 75.9374 67.6974C76.2059 68.0554 76.3531 68.4898 76.3574 68.9374C76.3909 69.2843 76.3176 69.6332 76.1474 69.9374C75.8474 70.3074 75.3474 70.2374 74.8674 70.3974C74.5573 70.4798 74.2382 70.5235 73.9174 70.5274L72.3574 70.6174C70.3922 70.8075 68.4436 71.1418 66.5274 71.6174C64.5274 72.1074 62.4474 72.6174 60.3574 73.2574L54.0474 74.8674C52.9574 75.1674 51.8674 75.4674 50.7074 75.7374C50.1174 75.8774 49.5474 76.0174 48.8274 76.1274C48.3492 76.2143 47.8632 76.2511 47.3774 76.2374C47.2611 76.2504 47.1437 76.2504 47.0274 76.2374C46.8729 76.2222 46.7194 76.1988 46.5674 76.1674C46.3111 76.1001 46.0603 76.0132 45.8174 75.9074C45.5643 75.7931 45.3259 75.6488 45.1074 75.4774C44.8503 75.2788 44.6245 75.0429 44.4374 74.7774C44.176 74.4117 43.9829 74.0018 43.8674 73.5674C43.7617 73.073 43.7617 72.5618 43.8674 72.0674C43.8866 71.9407 43.9202 71.8165 43.9674 71.6974C44.0423 71.4095 44.1496 71.131 44.2874 70.8674L44.4174 70.6774C44.4974 70.5574 44.5974 70.4274 44.6874 70.3174L44.8574 70.1174L45.0874 69.9174L46.0874 69.0674C51.9151 64.4328 58.5843 60.9692 65.7274 58.8674L65.7674 58.9574Z" fill="#231F20"/>
</svg>
