<svg width="138" height="100" viewBox="0 0 138 100" fill="none" xmlns="http://www.w3.org/2000/svg">
<path d="M114.278 39.6116C109.377 60.0998 58.4635 86.4568 45.1128 89.9268C44.7071 90.0606 44.2605 89.9931 43.9144 89.7457L38.4912 85.3705C38.4912 85.3705 79.8031 65.5764 87.0545 58.7269C94.306 51.8774 113.848 38.0728 113.848 38.0728L114.278 39.6116Z" fill="white"/>
<path d="M36.9547 90.9679C33.4765 88.7339 30.2613 86.128 27.368 83.1981C24.5147 80.1989 22.0577 76.8584 20.0551 73.2558C16.0782 65.988 14.1877 57.7954 14.5857 49.5541C14.6943 46.5871 15.0592 43.6345 15.6765 40.7282C16.2625 37.8261 17.1479 34.9902 18.319 32.2644C22.4344 22.6813 29.2652 14.4601 37.9994 8.5778C42.3462 5.68339 47.1106 3.44573 52.1336 1.93952C53.4087 1.63778 54.6532 1.23043 55.9437 1.01921L59.8306 0.340296L63.7329 0.0536427C65.0387 -0.0670533 66.3446 0.0536427 67.6351 0.0536427H69.3712L71.0919 0.234687C72.2287 0.37047 73.381 0.430818 74.5179 0.611862C76.7788 0.985807 79.0154 1.48957 81.2163 2.12056C83.4029 2.73389 85.5522 3.46932 87.6535 4.32326C88.7135 4.7457 89.7121 5.27375 90.7261 5.74144C91.7822 6.17909 92.8086 6.68303 93.7988 7.25014C98.9772 10.0378 103.583 13.7469 107.38 18.1882C111.172 22.714 113.712 28.1232 114.754 33.8938C114.754 35.7344 114.601 36.534 114.201 36.5642C113.802 36.5944 113.126 35.8551 111.958 34.7236L102.74 24.2985C96.0781 16.6431 87.0441 11.3435 77.0221 9.21145C72.0506 8.04424 66.9279 7.62206 61.8278 7.95923C59.2923 8.16936 56.7793 8.58824 54.3152 9.21145C51.8175 9.90703 49.3778 10.7897 47.0176 11.8517C41.2863 14.6113 36.2692 18.6148 32.3457 23.5592C28.3104 28.6115 25.3388 34.4016 23.604 40.5924C21.5972 47.3282 21.4013 54.4596 23.0355 61.2918C24.753 68.1565 28.3684 74.4217 33.4826 79.3962C36.6677 82.5185 40.2887 85.1803 44.2369 87.3018C48.1829 89.4622 52.4414 91.019 56.8655 91.9184C63.4875 93.3555 70.368 93.169 76.8992 91.3753C83.459 89.3605 89.5766 86.1571 94.9357 81.9308C98.9111 78.5843 102.287 74.6064 104.922 70.1629C107.454 65.7431 109.322 60.9867 110.468 56.0415L110.852 54.4272C110.96 53.8841 111.021 53.3409 111.113 52.7978C111.251 51.7115 111.513 50.6253 111.589 49.5239C112.158 45.4052 112.004 42.7499 112.342 40.8489C112.483 40.0249 112.688 39.2128 112.957 38.4199C113.279 37.7259 113.556 37.1828 113.832 36.6396C114.109 36.0965 114.278 35.5081 114.478 35.1309C114.846 34.5727 115.43 35.0555 116.644 36.6396C117.731 38.2215 118.43 40.0287 118.687 41.9201C118.841 42.7574 118.934 43.6044 118.964 44.4547C119.254 49.696 118.736 54.9503 117.427 60.0396C116.014 65.2599 113.824 70.247 110.929 74.8399C109.399 77.1424 107.705 79.3355 105.859 81.4028C104.952 82.4589 103.988 83.4662 102.971 84.4202L99.7905 87.166L99.0069 87.86L98.1466 88.4635L96.4105 89.7157C95.2429 90.4851 94.1368 91.3753 92.9077 92.024L89.1898 93.9401C88.5753 94.2569 87.9607 94.6039 87.3308 94.8905L85.3797 95.66L82.5068 96.8066C81.5387 97.216 80.5428 97.5588 79.5263 97.8325C78.4816 98.1192 77.4369 98.436 76.4536 98.6774L73.2734 99.2356C69.0476 99.8283 64.7611 99.879 60.5219 99.3865C52.1565 98.3092 44.1217 95.4905 36.9547 91.1188V90.9679Z" fill="white"/>
<path d="M100.712 53.6733C92.0992 60.2707 82.871 66.0546 73.1505 70.9479C69.6323 72.7131 66.1449 74.6292 62.6267 76.1379C56.3585 79.0044 49.993 81.6798 43.5301 84.1641C37.014 86.6345 30.3428 88.6905 23.5579 90.3196C20.5235 91.0976 17.4456 91.7021 14.3399 92.1301C12.7258 92.3379 11.0963 92.4086 9.46977 92.3413C7.7052 92.312 5.96492 91.9323 4.3538 91.2249C3.16916 90.6715 2.15232 89.8238 1.40406 88.7657C0.68459 87.6918 0.232023 86.4671 0.0828149 85.1901C-0.0659414 83.998 -0.0140378 82.79 0.236448 81.6144C0.497778 80.5219 0.8897 79.4635 1.40406 78.4613C3.35067 74.6484 6.53435 71.5804 10.453 69.741C11.7128 69.1827 12.4656 69.3487 12.5732 69.741C12.6807 70.1332 12.3273 70.963 11.8204 71.9738C11.3134 72.9847 10.6067 74.2067 9.82313 75.6551C9.42368 76.3491 9.05497 77.1638 8.60943 77.8729L7.14992 80.1963C6.37147 81.2901 5.87583 82.5535 5.70577 83.8775C5.66956 84.3863 5.72681 84.8973 5.87477 85.3862C5.96484 85.7051 6.15917 85.986 6.42785 86.1858C7.50359 86.8541 8.74994 87.2097 10.0229 87.2117C11.7735 87.2876 13.5275 87.2017 15.2617 86.9552C17.09 86.7289 18.9489 86.3819 20.8079 85.9746C22.6668 85.5672 24.5104 84.9336 26.354 84.3603C30.0412 83.1835 33.7284 81.886 37.4156 80.5282C46.4692 77.1712 55.3044 73.2715 63.8711 68.8508C68.6645 66.5123 73.3656 64.1588 77.8978 61.4884C82.43 58.818 86.8699 55.9514 91.1409 52.8737C96.4143 49.0818 101.467 45.0018 106.274 40.6532C109.899 37.3039 113.433 33.8942 116.844 30.3035C118.518 28.5233 120.147 26.6676 121.852 24.8269C123.557 22.9863 125.155 21.2061 126.599 19.3353C127.716 17.9294 128.678 16.4124 129.472 14.8092C129.657 14.4169 129.856 14.0397 129.995 13.6475L130.225 13.0742C130.278 12.9357 130.325 12.7948 130.363 12.6517C130.504 12.2014 130.581 11.7345 130.594 11.2637C130.586 10.8118 130.35 10.3933 129.964 10.1473C129.577 9.92697 129.136 9.81723 128.689 9.83046C128.172 9.85587 127.658 9.92145 127.152 10.0266C126.344 10.1672 125.555 10.4001 124.802 10.7206C123.41 11.2954 122.094 12.0351 120.884 12.9233C119.088 13.8861 117.224 14.723 115.307 15.4277C114.684 15.5719 114.043 15.6328 113.402 15.6088C112.803 15.5058 112.213 15.3595 111.636 15.1713C111.129 15.0053 110.56 14.945 110.207 14.779C109.592 14.5074 109.654 13.8134 110.068 12.4103C110.782 10.5625 112.066 8.97999 113.74 7.88424C116.891 5.52895 120.585 3.97421 124.495 3.35814C125.631 3.0646 126.794 2.87769 127.967 2.79992C129.598 2.67385 131.238 2.86876 132.791 3.37323C134.282 3.87116 135.591 4.78944 136.555 6.01345C137.495 7.26808 138.001 8.78562 137.999 10.3434C137.907 11.9799 137.56 13.5928 136.97 15.126C136.872 15.4398 136.754 15.7472 136.616 16.0463L136.294 16.7856C136.063 17.2834 135.817 17.7361 135.572 18.2188C134.609 20.0196 133.483 21.7314 132.207 23.3333C129.81 26.3507 127.199 29.0362 124.909 31.5558C117.551 39.6304 109.497 47.0658 100.835 53.7789L100.712 53.6733Z" fill="white"/>
<path d="M51.2578 41.3312C50.6153 41.721 49.9362 42.0494 49.2299 42.3119C48.545 42.5031 47.8466 42.6443 47.1405 42.7343C45.8461 42.8462 44.5418 42.739 43.2843 42.4175L41.9477 42.0856C41.4925 41.9291 41.0507 41.7374 40.6265 41.5123C39.1016 40.6525 37.9163 39.3131 37.2619 37.7103C36.955 36.9356 36.7937 36.1126 36.7856 35.2813C36.7856 34.874 36.7856 34.4817 36.9239 34.1045L37.2312 32.9881C37.6664 31.7594 38.3511 30.6302 39.2438 29.669C40.2817 28.4222 41.7769 27.6257 43.4072 27.4512C43.8988 27.4512 43.9142 27.8284 43.7145 28.4017C43.4936 29.0454 43.1377 29.6364 42.6698 30.1367C42.2298 30.4895 41.8599 30.9191 41.579 31.404C41.3122 31.8486 41.1203 32.3326 41.0105 32.8372C40.9004 33.2867 40.8488 33.748 40.8569 34.2102C40.8876 34.6421 40.8876 35.0757 40.8569 35.5076C40.8569 36.609 41.9323 37.3332 43.1153 37.7707C44.4801 38.3418 46.0109 38.4008 47.417 37.9366C48.1853 37.6024 48.8255 37.0371 49.2453 36.3223C49.9587 35.1322 50.1208 33.6995 49.6908 32.3846C49.3149 31.3827 48.6602 30.5045 47.8011 29.85C47.5949 29.7368 47.3995 29.6055 47.2173 29.4578C46.6306 28.9444 46.4181 28.1336 46.6796 27.4059C46.6796 27.1947 46.7564 26.9684 46.8025 26.7572C46.9869 26.0783 47.6782 25.7313 48.8305 25.8218C50.6239 26.1241 52.2538 27.0311 53.4394 28.3866C54.0846 29.1074 54.6037 29.9282 54.9758 30.8156C55.0987 31.2833 55.2062 31.7661 55.283 32.2488C55.3598 32.7316 55.283 33.2446 55.3598 33.7575C55.3213 36.7962 53.8305 39.6403 51.3347 41.4368L51.2578 41.3312Z" fill="white"/>
</svg>
