<svg width="139" height="125" viewBox="0 0 139 125" fill="none" xmlns="http://www.w3.org/2000/svg">
<path d="M70.7015 74.7239C71.3526 72.6872 72.0037 70.6505 72.5546 68.6305L73.406 65.6255L73.7232 64.1397L73.8067 63.906C73.9214 63.5999 73.9944 63.2799 74.0237 62.9544C74.0543 62.7842 73.9429 62.6208 73.7733 62.5871C73.6158 62.5372 73.4467 62.5372 73.2892 62.5871C72.9474 62.7033 72.6344 62.8912 72.371 63.138L72.1873 63.3383L71.7032 63.8559C71.4027 64.2064 71.0688 64.557 70.7683 64.941C70.1506 65.6756 69.5496 66.4602 68.9653 67.2615C66.5429 70.5982 64.3134 74.0708 62.2876 77.6621C59.2659 82.9709 56.6783 88.5969 53.9404 94.1394L52.0205 98.0459C51.4529 99.3981 50.9521 100.784 50.3511 102.086L48.3311 106.042L45.1759 112.32C42.9221 116.744 40.3512 120.667 38.1642 122.236C37.2061 123.019 36.1224 123.634 34.9589 124.056C34.293 124.306 33.5715 124.369 32.8721 124.239C32.0781 123.992 31.3523 123.563 30.7519 122.987C29.8328 122.034 29.1272 120.896 28.6819 119.648C28.2072 118.352 27.9041 117 27.7804 115.625C27.6218 113.959 27.6218 112.282 27.7804 110.617C27.9473 108.764 28.3313 106.76 28.7152 104.774C28.9323 103.789 29.166 102.787 29.4164 101.802L30.1009 99.2312L31.186 95.4583L32.2711 91.7187L33.1059 88.8807C33.4564 87.7455 33.807 86.5602 34.0574 85.3582C34.1926 84.766 34.2709 84.1623 34.2912 83.5552C34.3236 83.2493 34.2467 82.9417 34.0741 82.6871C33.8571 82.4701 33.4898 82.5368 33.206 82.5202C32.0399 82.7625 31.0084 83.4362 30.3179 84.4066C29.6107 85.2819 28.969 86.2082 28.398 87.1779L26.3279 90.5167L23.9573 94.5234C22.2879 97.2279 20.7353 99.9491 18.949 102.62C17.0386 105.312 14.8261 107.777 12.3548 109.966C11.7037 110.517 11.0359 111.051 10.3348 111.535C9.60868 112.016 8.85626 112.457 8.08102 112.854C6.51646 113.686 4.82362 114.25 3.07272 114.523C2.28496 114.683 1.47318 114.683 0.685427 114.523C0.184596 114.423 -0.0157359 114.273 0.000958438 114.106C0.0176528 113.939 0.284762 113.705 0.718815 113.438L1.48676 113.004L2.40494 112.37C4.12556 111.065 5.54837 109.409 6.57853 107.512C7.94747 105.358 9.31641 102.687 10.9691 99.7821C13.924 95.2079 16.7287 90.1996 19.7504 85.0076L20.919 83.0377C21.7036 81.8023 22.4882 80.5502 23.323 79.3816C24.7897 77.1199 26.5465 75.0601 28.5483 73.2548C30.0076 71.9211 31.7562 70.944 33.6568 70.4001C34.4759 70.1829 35.3149 70.0486 36.1609 69.9994C37.0504 70.0219 37.9373 70.1056 38.8153 70.2498C39.3423 70.4121 39.8605 70.6016 40.3679 70.8174C40.8463 71.0636 41.2898 71.3723 41.6867 71.7356C42.2782 72.302 42.7644 72.969 43.1225 73.7055C43.9953 75.7415 44.2282 77.9948 43.7902 80.1662C43.2755 83.3303 42.5391 86.4543 41.5866 89.5151L40.9188 91.8356L40.5348 93.1211L39.7669 95.5751C39.2661 97.1889 38.7986 98.8083 38.3646 100.433L38.0474 101.652C38.0474 101.919 37.9639 101.919 37.9472 101.936V102.036L37.7469 102.453C37.3842 103.297 37.1317 104.183 36.9956 105.091C36.8625 105.639 36.8625 106.212 36.9956 106.76C37.0958 107.027 37.246 107.361 37.4965 107.378C37.707 107.349 37.9014 107.249 38.0474 107.094C38.3787 106.75 38.6699 106.369 38.9155 105.959C39.4664 105.074 39.9505 104.123 40.5014 103.021L42.7385 98.5133C43.473 96.8439 44.4079 95.4082 45.226 93.8055C46.7618 90.6002 48.3144 87.4116 49.9338 84.2397C53.7948 76.2836 58.3182 68.6664 63.4562 61.4686C65.0503 59.3067 66.8814 57.33 68.9152 55.5755C71.152 53.5259 74.0468 52.3419 77.0788 52.2366C78.472 52.2213 79.8381 52.6224 81.0019 53.3885C81.9439 54.304 82.5347 55.5211 82.6714 56.8275C82.8849 59.9707 82.5286 63.1266 81.6196 66.143C80.2507 71.4351 78.6981 76.4935 77.2958 81.5853C75.8273 86.5291 74.6346 91.5507 73.7232 96.6269C73.3997 98.4112 73.2487 100.223 73.2725 102.036C73.2796 102.7 73.3923 103.36 73.6063 103.989C73.6326 104.059 73.6662 104.126 73.7065 104.189V104.189L72.3042 105.358V105.358V105.358C72.2556 105.398 72.2108 105.443 72.1706 105.492L72.0538 105.675V105.675C72.0538 105.675 72.0538 105.675 72.0538 105.475C71.9369 105.091 71.7533 105.024 71.386 104.523C70.2675 103.505 70.7349 103.922 70.7182 103.722C71.1423 103.02 71.5161 102.29 71.8367 101.535C72.2207 100.667 72.588 99.7821 72.9553 98.8639C73.6731 97.0275 74.3576 95.1578 75.0421 93.2713C75.7265 91.3848 76.2274 89.682 76.8951 87.8456L78.8985 82.1529C80.2507 78.3466 81.6196 74.5569 83.0553 70.8007C87.5628 59.1147 92.1037 47.5622 99.132 36.7609C100.687 34.3949 102.435 32.1614 104.357 30.0832C105.259 29.0982 106.144 28.2301 106.995 27.4622C107.785 26.7803 108.61 26.1395 109.466 25.5423C110.746 24.6116 112.123 23.8224 113.573 23.1884C115.288 22.4169 117.189 22.1561 119.048 22.4372C119.67 22.5044 120.285 22.6273 120.885 22.8045C121.603 23.155 121.135 24.0065 119.983 25.4756C118.831 26.9447 117.129 29.1149 114.975 31.7359C113.439 33.7893 111.836 35.7426 110.384 37.8795C109.649 38.9479 108.948 40.0497 108.281 41.2183L106.127 44.5572C103.263 49.1196 100.649 53.8344 98.2973 58.6806C93.4349 68.8512 89.0997 79.2656 85.3091 89.8824C84.4577 91.8523 84.1405 94.0059 83.3725 96.0426C82.6046 98.0793 81.9869 100.166 81.2023 102.286C80.8183 103.338 80.4009 104.423 79.9168 105.625C79.6831 106.193 79.4327 106.777 79.0988 107.428C78.6756 108.187 78.1719 108.898 77.5963 109.548L77.2791 109.949L76.7282 110.533L76.411 110.8C76.2848 110.92 76.1509 111.032 76.0103 111.134C75.6039 111.425 75.1739 111.682 74.7249 111.902L74.3576 112.069L73.7566 112.269C73.33 112.388 72.8946 112.472 72.4544 112.52C71.5272 112.603 70.593 112.483 69.7166 112.169C69.2731 112.03 68.8473 111.839 68.4478 111.602L67.6965 111.067L67.0455 110.416L66.7283 110.083V109.966C65.9019 108.93 65.2943 107.737 64.942 106.46C64.4813 104.832 64.2785 103.142 64.341 101.452C64.4306 98.9358 64.7435 96.4329 65.2759 93.9725C65.7433 91.6687 66.2942 89.465 66.9453 87.2947C68.1139 82.9709 69.4161 78.7973 70.6848 74.6738L70.7015 74.7239Z" fill="#231F20"/>
<path d="M114.474 1.70282C116.995 1.15191 119.483 0.684468 122.237 0.350581C123.59 0.183638 124.942 0.050083 126.394 0H127.529C128.08 0 128.615 0 129.199 0C130.246 0.000716442 131.287 0.158279 132.287 0.467442C132.987 0.683016 133.66 0.97998 134.291 1.35224C134.961 1.64039 135.539 2.10839 135.96 2.70448C136.361 3.28879 136.761 3.88978 137.129 4.52417C137.374 5.25702 137.575 6.00407 137.73 6.76121L137.963 7.76287C138.063 8.09264 138.102 8.43752 138.08 8.78123C138.08 9.48239 138.08 10.1836 138.08 10.868C138.08 11.8864 137.947 12.6877 137.897 13.5391C137.813 15.2086 137.546 16.878 137.329 18.5474C136.828 21.7694 136.16 24.8412 135.526 27.9296C134.908 30.6341 134.625 33.4054 134.057 36.0765L133.039 41.1015C132.688 42.7709 132.337 44.3569 131.987 46.0263C131.803 46.9278 131.002 47.0781 130 46.1432C128.706 44.784 127.936 43.0089 127.83 41.1349C127.83 39.2762 127.83 37.4399 127.83 35.6257C127.83 34.7242 127.83 33.8228 127.93 32.9213L128.297 30.2836C128.798 26.7777 129.399 23.322 129.967 19.8997C130.395 17.8815 130.569 15.8176 130.484 13.7561C130.484 12.7879 130.084 11.5525 130.201 11.469C130.317 11.3855 130.084 10.7679 129.95 10.4173C129.817 10.0667 129.85 9.96653 129.666 9.84967C129.485 9.74069 129.288 9.66176 129.082 9.61595C128.454 9.48869 127.807 9.48869 127.179 9.61595C124.963 9.84875 122.765 10.2336 120.601 10.7679C117.81 11.435 115.056 12.2542 112.354 13.2219C108.169 14.6058 104.109 16.3427 100.217 18.4139C97.3754 20.2261 94.6592 22.2284 92.0873 24.4071C91.503 24.8579 90.9855 25.3754 90.4179 25.7928C88.1641 27.362 86.9955 27.1784 84.9922 25.2919C84.5415 24.8579 84.0573 24.4739 83.6567 24.0232C82.2746 22.4723 82.2746 20.1317 83.6567 18.5808C84.718 17.2743 85.861 16.0365 87.079 14.8747C88.2801 13.6887 89.5878 12.6157 90.9855 11.6694C93.8218 9.76035 96.8089 8.08538 99.917 6.66105C102.237 5.57591 104.608 4.60764 107.045 3.72284C109.483 2.83804 112.054 2.17027 114.508 1.50249L114.474 1.70282Z" fill="#231F20"/>
</svg>
