<svg width="122" height="150" viewBox="0 0 122 150" fill="none" xmlns="http://www.w3.org/2000/svg">
<path d="M85.3947 94.9611C83.187 94.4218 81.2568 93.085 79.9754 91.208C79.7124 90.8572 79.2915 90.3661 79.1336 90.1382L78.5549 89.3665C78.1515 88.8403 77.8358 88.437 77.45 87.981C77.0641 87.525 76.1697 86.8585 75.5909 86.2271L75.3103 85.9641L75.0998 85.7361C75.0153 85.634 74.9213 85.54 74.8192 85.4555C74.5931 85.2225 74.2979 85.0688 73.9774 85.017C73.2408 85.017 73.083 85.8062 72.9427 86.5428C72.9427 86.6305 72.9427 87.1216 72.9427 87.4197C72.9427 87.7179 72.9427 88.1213 72.9427 88.472C72.9454 89.1596 73.004 89.8459 73.118 90.524C73.3704 92.1099 73.8488 93.6514 74.5386 95.1014C74.7842 95.5399 74.5386 95.9959 73.6793 96.1888C72.3863 96.4197 71.0646 95.9769 70.1716 95.0138C69.7388 94.5276 69.3403 94.0119 68.979 93.4704C68.693 92.9158 68.4808 92.3262 68.3477 91.7166C68.0813 90.6353 67.9169 89.5314 67.8566 88.4194L67.7514 86.7533C67.7265 85.8575 67.7617 84.9611 67.8566 84.07C68.1159 82.4845 69.0004 81.0693 70.3119 80.1414C71.9288 79.2256 73.8885 79.1472 75.5734 79.931C76.4627 80.3005 77.3094 80.765 78.0989 81.3165C78.7207 81.7096 79.3075 82.1555 79.8527 82.6494C80.9106 83.6229 81.8899 84.6784 82.7815 85.8062C83.8338 87.069 83.8514 87.2619 84.3249 87.788C84.562 88.1241 84.9096 88.3662 85.307 88.472C85.7186 88.4828 86.0973 88.2487 86.2716 87.8757C86.4487 87.6185 86.5958 87.342 86.7101 87.0514C86.7897 86.892 86.86 86.728 86.9205 86.5604L87.2012 85.8413L88.5691 82.3337C89.2238 80.3028 90.0878 78.3456 91.1472 76.4935C91.4074 76.0567 91.7006 75.6404 92.0241 75.2483C92.4415 74.6738 93.0747 74.2939 93.778 74.196C94.4158 74.3326 94.9899 74.6782 95.409 75.1781C95.6379 75.3821 95.8491 75.605 96.0404 75.8446C96.3142 76.257 96.4717 76.7357 96.4964 77.2301C96.6626 77.7431 96.6626 78.2955 96.4964 78.8085C95.2687 81.397 94.1798 84.049 93.2343 86.7533L92.41 88.7702C92.2215 89.3719 91.987 89.9583 91.7085 90.524C91.4896 91.0952 91.201 91.6371 90.8491 92.1375C90.5436 92.6254 90.1783 93.0731 89.7617 93.4704L89.1654 94.0316L88.4814 94.4525C87.528 94.9901 86.4306 95.217 85.3421 95.1014L85.3947 94.9611Z" fill="#231F20"/>
<path d="M61.9985 116.147C55.9426 108.934 50.4599 101.258 45.6003 93.1897C40.4645 84.8147 37.0649 75.4927 35.6036 65.7776C34.499 58.4251 35.1664 50.915 37.5503 43.8725C39.911 37.5892 43.9439 32.0706 49.2132 27.9128C54.4523 23.8854 60.669 21.3249 67.2248 20.4942C73.578 19.66 80.0355 20.1618 86.1835 21.9674C92.3681 23.8078 97.9815 27.194 102.494 31.8063C106.33 35.8727 109.444 40.5643 111.702 45.6789C113.88 50.6172 115.549 55.7651 116.682 61.0423C117.409 64.4348 117.89 67.8754 118.12 71.3372C118.398 74.7145 118.491 78.1044 118.401 81.4918C118.31 88.2077 117.83 94.9127 116.963 101.573C116.402 105.694 115.209 105.081 113.911 101.468C112.172 95.7743 111.182 89.8787 110.965 83.9296C110.842 80.5974 110.579 77.2827 110.369 74.0381C110.18 70.8687 109.811 67.7125 109.264 64.585C108.091 58.4224 106.091 52.4464 103.318 46.8189C101.936 44.1678 100.278 41.6695 98.3726 39.3652C96.4854 37.174 94.3081 35.2504 91.901 33.6478C89.412 32.1022 86.7441 30.8654 83.9562 29.9648C80.9978 29.0795 77.9514 28.5208 74.8714 28.2986C67.5075 27.6271 60.1671 29.8122 54.3694 34.4019C48.6662 39.2142 44.9946 46.0059 44.092 53.4133C43.559 57.5869 43.6239 61.8153 44.2849 65.9706C45.0032 70.2125 46.1793 74.3641 47.7926 78.3525C51.3902 86.4898 55.9854 94.1483 61.4723 101.152C64.3486 104.975 67.3476 108.729 70.4343 112.464L79.0981 122.864C79.3788 123.18 79.6067 123.531 79.9049 123.811C80.203 124.092 80.7117 123.706 81.08 123.566C81.4483 123.425 82.0445 123.022 82.5181 122.724L85.1137 120.97C86.8675 119.778 88.7266 118.567 90.6032 117.463C91.5327 116.884 92.4973 116.305 93.4619 115.709L95.0052 114.867C95.6015 114.551 96.1101 114.271 96.8643 113.92C99.477 112.619 102.248 111.664 105.107 111.079C107.516 110.606 109.994 110.606 112.403 111.079C114.683 111.489 116.796 112.548 118.489 114.13C119.347 114.953 119.73 116.155 119.506 117.322C119.252 118.251 118.797 119.113 118.173 119.848C116.781 121.594 115.138 123.125 113.298 124.39C111.544 125.618 109.492 126.845 107.457 128.073L104.493 129.827L103.371 130.564L102.406 131.23C101.159 132.083 99.9858 133.039 98.8987 134.089C97.992 134.904 97.2686 135.902 96.7766 137.018L96.6714 137.333V137.333L94.1459 136.509V136.509V136.509C94.1071 136.49 94.0618 136.49 94.0231 136.509C93.8653 136.509 94.0231 136.509 94.0231 136.509C94.0231 136.509 94.0231 136.509 94.0231 136.386L94.1634 136.106C94.2336 135.921 94.2693 135.725 94.2686 135.527C94.3689 134.948 94.4159 134.361 94.4089 133.773V133.773H94.7772C95.3911 133.668 96.1452 133.475 96.8818 133.282L101.529 131.984C105.931 130.792 111.859 129.143 115.665 129.459C116.712 129.514 117.749 129.697 118.752 130.002C119.695 130.336 120.557 130.869 121.277 131.563C121.552 132.009 121.759 132.494 121.891 133.001C121.96 133.408 121.96 133.823 121.891 134.229C121.74 135.319 121.402 136.376 120.892 137.351C120.279 138.518 119.512 139.597 118.612 140.56C116.692 142.432 114.627 144.151 112.438 145.699L111.263 146.576C110.983 146.802 110.69 147.013 110.386 147.207C109.983 147.435 109.615 147.628 109.264 147.786C108.611 148.072 107.936 148.306 107.247 148.487C106.616 148.724 106.025 149.055 105.493 149.47C105.072 149.75 104.669 149.733 104.353 149.101C104.002 148.12 104.002 147.048 104.353 146.067C104.563 145.396 104.833 144.744 105.16 144.121C105.327 143.771 105.514 143.431 105.721 143.103L105.879 142.84C105.879 142.84 105.879 142.84 105.879 142.717V142.507C106.07 142.025 106.305 141.561 106.58 141.121C106.752 140.867 106.899 140.597 107.019 140.315C107.037 140.204 107.037 140.092 107.019 139.981C107.034 139.901 107.014 139.819 106.964 139.755C106.913 139.691 106.837 139.652 106.756 139.648C106.085 139.637 105.421 139.793 104.827 140.104L104.195 140.385L103.95 140.525H103.844L103.581 140.63L99.7931 141.648C98.2885 142.058 96.7597 142.375 95.2157 142.595H94.2686H93.497C93.0879 142.574 92.6822 142.509 92.2868 142.402C91.9515 142.323 91.623 142.218 91.3047 142.086L90.7961 141.858C90.3747 141.621 89.9807 141.339 89.621 141.016C88.1208 139.708 87.3931 137.723 87.6918 135.755C87.6918 135.527 87.6918 135.281 87.7971 135.071C87.9023 134.86 87.9549 134.545 87.9374 134.615V134.51V134.299L88.1127 133.861C88.3052 133.317 88.5519 132.794 88.8493 132.3C89.0891 131.825 89.3708 131.373 89.6912 130.949C90.7283 129.48 91.9482 128.148 93.3216 126.986C94.5492 125.933 95.7594 125.004 96.9695 124.145L98.7233 123.022L99.2319 122.671V122.671V122.671V122.671V122.671L98.7759 122.917L98.0393 123.32C97.408 123.671 96.7766 124.057 96.1452 124.425C93.6197 125.969 91.1118 127.687 88.3934 129.494L87.3586 130.178L86.4992 130.739L85.4996 131.353C84.2239 132.165 82.851 132.813 81.4132 133.282C80.0759 133.65 78.6641 133.65 77.3268 133.282C77.0012 133.205 76.6998 133.048 76.4499 132.826L75.6081 132.247L73.8542 131.09L61.4022 116.358L61.9985 116.147Z" fill="#231F20"/>
<path d="M78.1336 76.1602C79.6571 77.1483 81.048 78.3271 82.2726 79.6678L83.0268 80.4921V80.65L83.2197 81.0007L83.7107 81.8952C83.7984 82.018 83.9212 82.3863 84.0615 82.246C84.1461 82.1479 84.2115 82.0349 84.2544 81.9127C84.4123 81.5094 84.3597 80.8955 84.5701 80.4746V80.4746C84.5701 80.4746 84.5701 80.4746 84.5701 80.2817L84.763 79.5802L85.219 78.0368L85.4996 77.1774L85.9556 76.0901C86.2821 75.3339 86.6815 74.6114 87.1482 73.9329C87.9163 72.6916 89.0157 71.6893 90.3226 71.0391C91.6178 70.4239 93.0841 70.2692 94.4792 70.6006C95.8921 70.9169 97.209 71.5663 98.32 72.4947C98.8772 72.9702 99.4099 73.4736 99.916 74.003C100.337 74.5467 100.67 75.1255 101.038 75.7568C102.1 77.7203 102.745 79.8816 102.933 82.1056C103.055 83.0352 103.055 83.8595 103.143 84.8065C103.231 85.7536 103.143 86.5603 103.143 87.4372C103.162 89.1293 103.092 90.8212 102.933 92.5058C102.722 94.6454 102.459 96.75 102.126 98.8195C101.95 99.8542 101.424 100.836 101.231 101.854C101.038 102.871 100.793 103.888 100.618 104.905C100.442 105.922 99.8108 106.01 99.1443 104.905C98.7178 104.15 98.3766 103.35 98.1271 102.52C97.9342 102.011 97.864 101.485 97.6711 100.907C97.4263 100.335 97.2154 99.7492 97.0397 99.1527C96.7942 96.9604 96.8468 94.8734 96.7065 92.8039L96.5136 89.7698C96.5136 88.7877 96.5136 87.8055 96.3733 86.8585C96.2872 85.1309 96.0047 83.4186 95.5314 81.7549C95.452 81.404 95.3344 81.0629 95.1807 80.7377C95.0579 80.4921 94.9176 80.0537 94.8475 79.9485C94.637 79.5275 94.6019 79.2995 94.4616 79.0189C94.2822 78.6481 93.9242 78.3962 93.5146 78.3525C93.1092 78.4241 92.7668 78.6941 92.6026 79.0715C92.5026 79.2624 92.4204 79.462 92.357 79.6678C92.2343 80.0011 92.0414 80.5623 91.8835 81.1235L91.6204 82.0355L91.2346 83.6139L90.5506 86.7883C90.2535 88.6319 89.5397 90.3834 88.4636 91.9095C88.2595 92.1598 88.0367 92.3943 87.7971 92.611C87.5339 92.8622 87.2156 93.0484 86.8676 93.1547C86.5693 93.2075 86.262 93.1448 86.0082 92.9793C85.7627 92.839 85.5698 92.7864 85.2716 92.5935L84.4123 92.0673L83.3951 91.2781L83.132 91.0852L82.8514 90.7169L82.3077 89.9803L81.2203 88.5246L80.133 87.0163L79.0105 85.7185C78.8176 85.508 78.6422 85.2801 78.4318 85.0871L78.0635 84.6838C77.8179 84.4558 77.6075 84.1927 77.3619 83.9822C76.4548 83.0764 75.4064 82.3241 74.2577 81.7549C73.8515 81.5693 73.3963 81.5201 72.9599 81.6146C72.5291 81.7587 72.1507 82.0272 71.8725 82.3863C71.4313 82.9936 71.237 83.7458 71.3288 84.4908C71.4147 85.6287 71.675 86.7467 72.1005 87.8055C73.0342 90.1738 74.2659 92.4133 75.766 94.47C78.2226 97.6481 80.9769 100.584 83.9914 103.239C84.6403 103.853 85.3242 104.397 85.9556 104.993C88.3408 107.29 88.7968 108.255 88.183 109.991C88.0697 110.39 87.935 110.782 87.7796 111.166C87.1658 112.359 85.3593 112.201 83.2547 110.675C76.7398 105.856 71.264 99.7712 67.1547 92.7864C66.2812 91.2594 65.5756 89.6423 65.0502 87.9634C64.7674 86.9763 64.5679 85.9672 64.4539 84.9468C64.408 84.2753 64.408 83.6015 64.4539 82.9299C64.5111 82.2201 64.6524 81.5195 64.8748 80.8429C64.9705 80.5026 65.0876 80.1687 65.2255 79.8432L65.7342 78.9137C66.0706 78.2857 66.4766 77.6974 66.9443 77.1599C67.4353 76.7039 67.9615 76.2479 68.5052 75.827C69.0651 75.4625 69.6513 75.1401 70.259 74.8624C72.9406 74.0688 75.834 74.4648 78.2038 75.9498L78.1336 76.1602Z" fill="#231F20"/>
<path d="M29.623 33.9108C30.1666 33.9108 30.0088 34.665 29.4125 35.84C29.1074 36.379 28.7027 36.8551 28.2199 37.2431C27.8674 37.3843 27.5037 37.4958 27.1326 37.5763C26.9572 37.5763 24.8701 36.8923 24.0985 36.7345C23.4059 36.5508 22.7482 36.2545 22.1517 35.8576C20.924 35.121 19.6438 34.437 18.381 33.7179C18.0945 33.5599 17.8484 33.3379 17.662 33.069C16.963 32.1772 16.0444 31.4822 14.9962 31.0521C14.8228 30.9147 14.5915 30.8751 14.3823 30.9469C13.1415 30.6666 11.9975 30.0613 11.0676 29.1931C10.5765 28.1583 9.96271 27.299 9.40149 26.3519C9.3138 26.2291 9.15596 26.2116 9.20858 25.8959C9.34888 25.1944 9.05073 25.0892 8.84027 24.8436C8.52022 24.4689 8.30805 24.0142 8.22644 23.5283C8.18038 23.2025 8.18038 22.8719 8.22644 22.5461C8.22644 22.248 8.73505 21.7569 8.84027 21.7218C8.9455 21.6868 9.22611 21.2834 9.40149 21.0378C9.45574 20.9432 9.52045 20.855 9.59441 20.7748C9.59441 20.7748 10.4362 20.6695 11.3482 20.5117C11.9296 20.4245 12.5207 20.4245 13.102 20.5117L13.6457 20.7397L14.8208 21.1957L16.8377 21.9148C17.0306 21.9148 17.1007 22.2304 17.2235 22.4409C17.3463 22.6514 19.8191 23.7036 19.9068 23.7913C20.3278 24.1947 20.9416 24.335 21.0819 25.1593C21.0819 25.3172 21.2222 25.3522 21.3274 25.4224C22.1003 25.9963 22.8062 26.6552 23.432 27.3867C23.8003 27.7374 24.2738 27.9829 24.6772 28.2986C24.6772 28.2986 24.7824 28.474 24.8351 28.5617C24.8877 28.6494 24.9578 28.8072 25.063 28.8599C25.9955 29.6659 26.9797 30.4099 28.0095 31.0872C28.2725 31.2275 28.9916 32.5779 29.2897 32.7182C29.5879 32.8586 29.4125 33.9284 29.623 33.9108Z" fill="#231F20"/>
<path d="M42.3376 21.1256C42.7409 21.4763 42.0745 21.8797 40.8117 22.2305C40.2357 22.3525 39.6454 22.3939 39.0579 22.3532C38.6896 22.1779 38.3389 22.02 38.0758 21.8622C37.8127 21.7043 37.006 20.1084 36.585 19.4945C36.2226 18.9621 35.9611 18.3676 35.8134 17.7407C35.4626 16.5306 35.0241 15.338 34.6032 14.0928C34.5411 13.8038 34.5411 13.5049 34.6032 13.2159C34.7183 12.1902 34.5293 11.1534 34.0595 10.2344C34.0595 10.0765 34.0595 9.90116 33.6912 9.79593C32.9891 8.83611 32.5919 7.68729 32.5513 6.49876C32.902 5.46401 33.0774 4.46434 33.3405 3.46467C33.3405 3.32436 33.3405 3.20159 33.5159 3.02621C33.8893 2.87329 34.0971 2.47248 34.0069 2.07915C34.045 1.61999 34.2021 1.1787 34.4629 0.79887C34.6651 0.5569 34.8946 0.339148 35.1469 0.149959C35.4662 0.00869666 35.8204 -0.0340502 36.1641 0.0271918C36.4272 0.185035 36.7604 0.0271918 37.0586 0.0271918H37.3743C37.3743 0.0271918 38.0407 0.500721 38.7422 0.939175C39.1771 1.22495 39.5672 1.57366 39.8997 1.97393C39.8997 1.97393 39.9874 2.16684 40.1102 2.44745L40.6188 3.44713C40.9871 4.18373 41.4606 4.92033 41.5308 5.09571C41.6009 5.2711 41.5308 5.46401 41.5308 5.65693C41.5308 5.84985 42.5129 8.05966 42.5305 8.16489C42.5305 8.69103 42.8988 9.14702 42.4428 9.79593C42.3898 9.89449 42.3898 10.0131 42.4428 10.1116C42.6582 11.0191 42.7583 11.9501 42.7409 12.8826C42.8015 13.3492 42.8894 13.8118 43.004 14.2682C43.0208 14.3609 43.0208 14.456 43.004 14.5488C42.9709 14.6633 42.9709 14.785 43.004 14.8995C43.1326 16.0425 43.3199 17.1782 43.5652 18.3019C43.6529 18.565 43.1969 19.933 43.3197 20.2311C43.4425 20.5293 42.1972 21.0028 42.3376 21.1256Z" fill="#231F20"/>
<path d="M26.3076 51.6946C26.8338 51.4139 27.1495 52.1681 27.2722 53.4484C27.2673 54.0482 27.1544 54.6423 26.939 55.2022C26.6584 55.5179 26.3953 55.8336 26.1498 56.0615C25.12 56.384 24.1074 56.7586 23.1157 57.184C22.4466 57.4868 21.7381 57.6935 21.0111 57.7978C19.573 58.096 18.1349 58.4993 16.6441 58.9027C16.3027 58.9727 15.9507 58.9727 15.6094 58.9027C14.4345 58.6877 13.2235 58.7906 12.1017 59.2009C11.8913 59.2009 11.6808 59.2009 11.5405 59.5516C10.3076 60.2087 8.93843 60.569 7.54182 60.6039C6.34923 60.2356 5.17417 60.0602 4.03419 59.7972C3.87635 59.7972 3.71851 59.7972 3.52559 59.5867C3.10467 58.9378 2.77145 59.0956 2.42068 59.0606C1.89788 58.9664 1.39041 58.8012 0.912404 58.5695C0.627874 58.374 0.373755 58.1377 0.158264 57.868C-0.0697313 57.64 0.000421232 56.8332 0.0530356 56.728C0.10565 56.6228 0.0530356 56.0615 0.0530356 55.7283C0.0530356 55.3951 0.0530356 55.4652 0.0530356 55.36C0.42792 54.9016 0.825969 54.4625 1.24563 54.0447C1.61081 53.5474 2.06226 53.1197 2.57853 52.7819L3.17482 52.5715L4.43757 52.0804L6.47199 51.221C6.66491 51.1158 6.92799 51.221 7.15598 51.221C7.38398 51.221 10.1725 50.1161 10.3128 50.1161C10.9618 50.1161 11.5581 49.7127 12.3122 50.2038C12.4525 50.309 12.5753 50.2038 12.7156 50.2038C13.8663 49.9488 15.0502 49.8777 16.2232 49.9934C16.8195 49.9934 17.3983 49.9057 17.977 49.8881C18.0822 49.8881 18.205 49.8881 18.3102 49.9934C18.4472 50.0408 18.588 50.076 18.7312 50.0986C20.1693 49.9758 21.6074 50.2564 23.0631 50.0986C23.4138 50.0986 25.0098 50.8001 25.3956 50.7826C25.7815 50.765 26.1147 51.7998 26.3076 51.6946Z" fill="#231F20"/>
</svg>
