<svg width="104" height="112" viewBox="0 0 104 112" fill="none" xmlns="http://www.w3.org/2000/svg">
<path d="M21.7861 50.217C22.6062 52.9239 23.4546 55.5779 24.2935 58.2496C24.6023 59.22 24.9787 60.1699 25.2827 61.1491C26.3371 64.6052 27.378 68.0653 28.2835 71.5665L29.5646 76.2099C30.1839 78.1946 30.4773 80.2666 30.4333 82.3451C30.3653 83.0233 30.1408 82.8918 29.8556 82.365C29.4118 81.5708 29.0366 80.7403 28.734 79.8824C28.5953 79.3998 28.4165 78.9073 28.2641 78.4288L28.0021 77.7103L27.7348 77.0229L26.8456 74.0635C26.2558 72.0921 25.626 70.1107 25.1003 68.083C24.4781 65.6634 23.5254 63.2257 22.7155 60.7964L20.0835 52.7425C19.5568 51.0771 19.0342 49.4252 18.5623 47.7211C18.4727 47.401 18.3743 47.0761 18.3029 46.7431C18.2316 46.4101 18.2181 46.4142 18.1871 46.2388C18.1562 46.0635 18.107 45.9011 18.0785 45.6364C17.9761 45.1763 18.0551 44.6946 18.299 44.2913C18.441 44.1053 18.6065 43.9384 18.7914 43.7949C18.9746 43.6434 19.1889 43.4972 19.3119 43.4156C20.487 42.6606 21.666 42.0892 22.8156 41.4454C24.6051 40.4747 26.3158 39.4392 28.0171 38.4214C28.3992 38.1949 28.746 37.9494 29.1362 37.7499C29.636 37.4734 30.1588 37.2408 30.6989 37.0549C31.0052 36.99 31.3227 37.0003 31.6241 37.0849C31.7474 37.1039 31.8692 37.1312 31.9887 37.1665C32.1386 37.2467 32.1472 37.4214 31.9815 37.7524C31.7484 38.2013 31.4217 38.595 31.0236 38.907C28.1564 41.3198 24.5863 42.7782 21.5161 44.7649C21.247 44.9498 20.9691 45.1301 20.7271 45.3068L20.5534 45.4407C20.5534 45.4407 20.5251 45.4936 20.5534 45.4407L20.6119 45.7555L20.7195 46.2327C21.0237 47.5295 21.4426 48.8877 21.8438 50.2365L21.7861 50.217Z" fill="#231F20"/>
<path d="M46.8065 69.0805C46.8065 69.0805 48.9141 70.0379 49.8495 69.0526C50.7848 68.0673 48.0003 72.5091 48.0003 72.5091L46.8065 69.0805Z" fill="#231F20"/>
<path d="M54.9092 61.1215L49.3984 58.4909L47.3743 57.5895L43.8188 55.9255C42.6637 55.3076 41.4661 54.769 40.2733 54.2216C39.2127 53.7449 38.1427 53.2859 37.0904 52.8363L33.0003 51.0905C32.5946 50.8735 32.6476 50.9018 33.0286 51.0376C33.4096 51.1734 34.1076 51.3313 34.9143 51.6041C37.8001 52.5696 40.6765 53.5527 43.4774 54.6769L48.6583 56.7794L54.3134 59.2037L57.7697 60.7352C59.5246 61.5039 61.2653 62.2991 63.0262 63.0142C64.3884 63.5842 65.7631 64.0248 67.136 64.5325C67.4182 64.6834 67.7387 64.7415 68.0791 64.8895C69.185 65.3451 69.4722 65.6349 69.5434 66.1379C69.5647 66.2547 69.5734 66.3734 69.5694 66.492C69.5366 66.8714 68.9753 66.9454 68.1185 66.7025C65.5238 65.9172 62.9907 64.9411 60.5399 63.7822L54.895 61.148L54.9092 61.1215Z" fill="#231F20"/>
<path d="M40.3899 49.509L40.0214 47.4632C39.9746 47.2114 39.9008 46.9678 39.8629 46.7207C39.7623 45.8276 39.684 44.9351 39.6105 44.0339L39.5002 42.8408C39.4263 42.3498 39.4295 41.8502 39.5098 41.3602C39.5766 41.0444 40.0114 41.5038 40.1089 42.021C40.23 42.9817 40.4718 43.9503 40.6052 44.9516C40.7269 45.5508 40.8793 46.1433 41.0617 46.7269L41.5345 48.7263L41.8405 49.9561C42.0068 50.5781 42.1595 51.2042 42.3711 51.8051C42.5628 52.2629 42.7774 52.7108 43.0141 53.1471C43.0712 53.239 43.1224 53.3346 43.1673 53.4331C43.318 53.8086 43.2601 53.9591 42.8875 54.1681C42.8046 54.2224 42.7181 54.2708 42.6285 54.313C42.3562 54.455 42.0208 54.3685 41.8511 54.1126C41.3657 53.3281 41.013 52.4688 40.8073 51.5695C40.6334 50.8981 40.4678 50.2538 40.3311 49.5342L40.3899 49.509Z" fill="#231F20"/>
<path d="M24.3501 51.6571C25.1685 55.2364 26.1039 58.7876 27.0394 62.3388C27.3877 63.6592 27.9208 64.9311 28.225 66.228C29.4302 70.8648 30.536 75.5392 31.6006 80.2482C32.0349 82.3405 32.5587 84.4353 33.0243 86.5329L33.4734 88.5765C33.5478 89.2854 33.6228 89.9719 33.6295 90.7014C33.7209 92.2354 33.4691 93.7706 32.8926 95.1951C32.3218 96.262 31.9339 95.5668 31.4455 94.7839C30.6808 93.8208 30.0268 92.7748 29.4959 91.6655C29.2932 91.0693 29.0592 90.4679 28.8077 89.857C28.612 89.2354 28.4502 88.6037 28.323 87.9646L27.3751 84.0551L26.8923 82.0957L26.5049 80.0852C26.2513 78.736 26.0113 77.3828 25.7895 76.0166C25.074 72.7022 24.174 69.4302 23.0938 66.2161C22.0925 62.6183 21.1054 58.9941 20.1819 55.3359C19.5859 53.1004 19.0447 50.8262 18.6007 48.4339L18.504 47.7243C18.4673 47.4325 18.4542 47.0966 18.4316 46.7783C18.4091 46.1667 18.508 45.5566 18.7228 44.9834C19.067 44.4572 19.4821 43.9809 19.9563 43.5679C20.4957 43.1533 20.8248 42.8985 21.2122 42.6407C22.7083 41.6038 24.1965 40.6875 25.6325 39.7205C26.754 38.9596 27.8227 38.1704 28.8696 37.3582C29.9165 36.546 30.9071 35.6696 31.9956 34.9704C32.4831 34.6528 32.8906 34.3151 33.378 33.9975C33.9781 33.5612 34.6332 33.2062 35.3264 32.9417C35.784 32.8475 36.2575 32.8636 36.7075 32.9888C36.8927 33.0878 37.1527 33.0682 37.3256 33.1266C37.4985 33.1851 37.6992 33.5306 37.6132 34.0517C37.4743 34.7641 37.1539 35.4287 36.6831 35.9811C35.8724 36.9877 35.0135 37.9572 34.1423 38.8861C33.7136 39.3502 33.2437 39.7745 32.7384 40.1537C32.2532 40.5519 31.755 40.9319 31.2569 41.3118C29.2555 42.8269 27.172 44.2413 25.2578 45.6783L24.2127 46.4234C24.0465 46.5405 23.8876 46.6675 23.7369 46.804L23.5538 46.9555C23.5443 46.9403 23.5275 46.9313 23.5097 46.9319C23.4781 46.7789 23.5697 47.3496 23.6228 47.6956L23.8565 48.9547C24.0431 49.8144 24.2561 50.6882 24.4826 51.5579L24.3501 51.6571Z" fill="#231F20"/>
<path d="M81.926 51.5769C81.6112 54.3569 81.5085 57.1568 81.6189 59.9524C81.7193 62.7961 81.981 65.6352 82.3413 68.6292L82.6997 71.6903L82.5916 72.5284L82.5263 72.9471L82.5072 73.1524L82.4601 73.2406L82.319 73.1651C82.2318 73.4226 82.1027 73.6639 81.9369 73.8793C81.7373 74.0913 81.5145 74.2803 81.2727 74.4426C80.7478 74.7797 80.2046 75.0873 79.6456 75.364L78.9381 75.7114L78.4396 75.9437C71.3926 79.0464 64.3837 81.9086 57.4895 85.1498C54.4477 86.5959 51.3775 88.0949 48.4925 89.693C46.6124 90.7059 44.7704 91.7959 42.9467 92.8729C41.1229 93.95 39.1829 94.8628 37.4427 95.9959C36.3853 96.7004 36.1505 96.2913 36.5616 95.0142C37.3721 93.0813 38.6272 91.367 40.225 90.0106C43.8965 87.4494 47.7231 85.118 51.6828 83.03C55.6701 81.0463 59.7241 79.2344 63.8639 77.5591C66.3064 76.5975 68.7949 75.4225 71.2435 74.2374L77.5021 71.1666C77.5399 71.096 77.7281 71.0833 77.7177 70.9757L77.6945 70.6798C77.7417 70.5916 77.6831 70.4468 77.6732 70.3168L77.6384 69.9579L77.5761 69.4596L77.3269 67.4663C77.1662 66.1556 76.9797 64.8082 76.8703 63.4228C76.5942 60.673 76.4823 57.9091 76.535 55.1459C76.5533 54.1577 76.6075 53.166 76.6841 52.1749C76.7112 51.6791 76.7695 51.1886 76.8189 50.6933L76.8743 50.1446L76.9377 49.7929C76.9827 49.5802 77.0037 49.3632 77.0003 49.1459C76.8352 49.0081 76.6573 48.8864 76.469 48.7823L76.1781 48.6266L74.635 47.8011C73.4512 47.0884 72.074 46.7372 70.8767 46.0287L67.1661 44.1457L63.4226 42.3244C62.2058 41.6734 60.9465 41.1018 59.6967 40.5126C55.8143 38.6964 51.8361 37.2713 47.8934 35.6951C47.0262 35.3446 46.1524 35.0699 45.2906 34.6882C44.4287 34.3065 43.8461 34.0176 43.313 33.721C42.8843 33.4035 42.507 33.0219 42.1944 32.5896C41.7368 31.9449 41.4595 31.1897 41.3914 30.4021C41.3379 30.0873 41.3034 29.7696 41.2879 29.4508C41.3232 28.982 41.737 28.7384 42.5114 28.5629C43.5803 28.3114 44.6893 28.2796 45.7709 28.4694C49.5123 29.6044 53.191 30.9365 56.7917 32.46C58.6495 33.2271 60.4901 34.0265 62.3133 34.8583C64.1334 35.6959 65.9771 36.4894 67.7265 37.4593L71.2535 39.3462L73.017 40.2896C73.6132 40.5917 74.1868 40.9365 74.7333 41.3212C75.281 41.739 75.8145 42.1832 76.3411 42.5556L78.1575 43.5274C78.3427 43.6264 79.1098 44.0368 79.6153 44.364C79.9085 44.5256 80.1904 44.7067 80.4593 44.9062L80.8825 45.1326C80.9963 45.2291 81.0917 45.3454 81.1639 45.4759C81.3453 45.6967 81.4742 45.9557 81.5411 46.2335L81.6871 46.6178C81.8413 46.5415 81.3692 46.788 82.0226 46.457L82.0378 46.5559L82.0675 46.7759L82.3424 48.488L82.1685 50.5725L82.0655 51.5495L81.926 51.5769Z" fill="#231F20"/>
<path d="M53.8694 61.8355C51.3792 60.6394 48.866 59.465 46.3286 58.357C45.4138 57.947 44.4236 57.6781 43.5182 57.2505C40.2955 55.6852 37.0634 54.1375 33.7787 52.7092C33.045 52.3847 32.3007 52.1226 31.567 51.7981L29.3734 50.8741C28.4445 50.4906 27.5062 50.1247 26.5961 49.7059L25.9172 49.3427L25.2719 48.8954C24.8328 48.5924 24.4026 48.2942 23.9784 47.9425C23.7069 47.7292 23.6007 47.525 23.6683 47.5045C23.736 47.484 23.896 47.5242 24.1919 47.501C24.5948 47.4805 24.9962 47.4378 25.3944 47.3732L26.2116 47.266C26.3646 47.2344 26.5075 47.2428 26.674 47.2071L27.088 47.2812C29.1251 47.7132 31.1764 48.1188 33.171 48.6302C35.076 49.3091 37.045 50.1016 38.9486 50.9952C41.2049 52.0775 43.7064 52.7013 46.1128 53.6938C48.7138 54.7677 51.2953 55.8993 53.8626 57.0573L58.6122 59.2239C61.0026 60.3099 63.3675 61.5071 65.7538 62.5795C66.6686 62.9895 67.6069 63.3555 68.5453 63.7214L69.9704 64.2797C70.1909 64.3976 70.4531 64.4585 70.6783 64.5676L71.3572 64.9308C71.7628 65.1478 72.1508 65.3554 72.5564 65.5724C73.9522 66.5459 74.2356 67.1398 73.9802 68.126C73.9447 68.34 73.8925 68.551 73.8241 68.7569C73.5975 69.3502 72.6336 69.5831 71.5023 69.2387C70.6361 69.0135 69.77 68.7882 68.8767 68.5712C68.0218 68.3087 67.1874 67.9836 66.3803 67.5986C64.7359 66.8777 63.0569 66.1155 61.3873 65.3357C58.8911 64.1931 56.3833 62.9876 53.837 61.8749L53.8694 61.8355Z" fill="#231F20"/>
<path d="M59.7657 52.2763C58.4123 52.6863 57.0588 53.0963 55.7053 53.5064L51.5338 54.711C50.5146 55.005 49.5411 55.4255 48.4913 55.6918L47.0409 56.05C46.3024 56.2384 45.5491 56.3628 44.7892 56.4218C44.4328 56.4006 44.0783 56.355 43.7282 56.2851C43.4181 56.1559 43.1302 55.9788 42.8748 55.7605C42.3544 55.244 41.9708 54.6061 41.7583 53.9044C41.6158 53.556 41.5004 53.1993 41.385 52.8427L41.1831 52.0542C41.0572 51.59 40.9584 51.1175 40.8637 50.6585L40.3266 47.9102C40.0439 46.3186 39.6095 44.714 39.178 43.1675C38.8393 42.1923 38.5782 41.1918 38.3971 40.1754C38.2372 39.1599 38.1227 38.1232 37.9451 37.0983C37.8418 36.4646 38.0619 36.4349 38.6426 36.791C39.5531 37.3592 40.3492 38.0928 40.9898 38.954L41.4489 39.6646C41.6142 39.8879 41.7461 40.1342 41.8403 40.3957L42.3795 41.9316C42.7271 42.9568 43.0522 43.9813 43.3462 45.0005C43.9342 47.0389 44.4633 49.1025 44.8831 51.0737C44.933 51.2271 44.9544 51.3885 44.9461 51.5496C44.9595 51.653 44.9807 51.7553 45.0092 51.8556C45.0354 51.9608 45.09 52.0567 45.1671 52.1329C45.2552 52.18 45.3635 52.1472 45.4712 52.1368C45.5735 52.1184 45.6744 52.0928 45.7731 52.0601L46.3963 51.8491L48.2029 51.2279L56.3465 48.4283L58.9052 47.631L61.6739 46.844C62.5653 46.5495 63.4926 46.3779 64.4304 46.334C64.8435 46.3576 65.2495 46.452 65.6306 46.6132C65.9053 46.926 66.1198 47.2868 66.2634 47.6775C66.5976 48.5603 66.8716 49.4646 67.0834 50.3844L67.5974 52.3492C68.146 54.3552 68.9124 56.2509 69.6052 58.2206C69.7587 58.6544 69.9488 59.0622 70.0577 59.4947C70.1192 59.6978 70.163 59.8913 70.2075 60.0626C70.252 60.2338 70.2159 60.4073 70.2163 60.5549C70.2073 60.822 70.1577 61.0861 70.0694 61.3383C69.988 61.5537 69.8605 61.7486 69.6958 61.9096C69.4848 62.0907 69.2555 62.2493 69.0116 62.3828C68.7797 62.5196 68.583 62.6752 68.3882 62.7638C67.839 63.0484 66.6119 62.6074 65.9898 61.4807C65.7272 61.087 65.5122 60.6636 65.3491 60.2193C65.1596 59.7891 64.9884 59.3459 64.8261 58.9074C64.4925 58.0258 64.1995 57.1319 63.9248 56.2251C63.6501 55.3183 63.3936 54.3986 63.1047 53.5182L62.7183 52.1206L62.5772 51.5575C62.5772 51.5575 62.5772 51.5575 62.6055 51.5046C62.6338 51.4517 62.6055 51.5046 62.5438 51.4716L62.3043 51.5589L61.8123 51.7153L59.8073 52.3893L59.7657 52.2763Z" fill="#231F20"/>
<path d="M34.396 61.3069C34.9397 61.2235 35.4739 61.1577 36.0052 61.0337C36.1941 60.9986 36.3495 60.8776 36.5425 60.8561C37.2209 60.7541 37.9156 60.7061 38.5723 60.5811C38.8565 60.5118 39.1253 60.3902 39.3651 60.2227C39.6795 60.0166 39.9305 59.6746 40.4009 59.8128C40.6984 59.8926 41.6744 62.6262 41.2781 62.8792C40.5677 63.3029 39.7433 63.4958 38.9186 63.4315C38.3875 63.3855 37.9894 63.7056 37.5651 63.8416C37.1409 63.9775 36.5336 64.0949 36.0247 64.2196C35.5157 64.3442 35.3898 64.3676 35.0785 64.4619C34.6208 64.5761 34.1691 64.713 33.725 64.8719C33.3942 65.0239 33.135 65.3388 32.7771 65.499C32.7147 65.5491 32.644 65.5881 32.5682 65.614C32.2663 65.6907 32.1 65.5563 31.8047 65.0695L31.5993 64.7327C31.4044 64.4201 31.3561 64.0379 31.4671 63.6867C31.6206 63.2722 31.8301 62.8806 32.0898 62.5228C32.3461 62.2665 32.6283 62.0374 32.9318 61.8392C33.3623 61.4797 33.9311 61.4551 34.4366 61.2946L34.396 61.3069Z" fill="#231F20"/>
<path d="M50.8694 74.2478C50.6988 74.4761 50.487 74.6705 50.2451 74.8211L49.6469 75.2609L48.414 76.1664C48.1839 76.2361 47.9589 76.4447 47.7023 76.5002C47.6744 76.4711 47.6497 76.4389 47.6289 76.4042C46.6406 74.7963 45.8385 73.0811 45.2378 71.2918L44.8411 70.1042L44.6289 69.5257L44.5709 68.8709C44.5004 68.3455 44.2622 67.9005 44.229 67.6446C44.1518 67.3277 44.1426 66.9982 44.202 66.6775C44.2529 66.4552 44.8307 66.2654 45.4761 66.225C46.1214 66.1847 46.9343 66.2339 47.1627 66.5489L47.4469 66.9505L47.4998 66.9788C47.4998 66.9788 47.4998 66.9788 47.4574 67.0581C47.3615 67.3283 47.3128 67.613 47.3134 67.8997C47.2965 68.102 47.3229 68.3056 47.3908 68.4969C47.4407 68.6369 47.503 68.6476 47.5604 68.8371C47.581 68.8668 47.5982 68.8988 47.6114 68.9325C47.682 68.9702 47.7029 69.1855 47.7687 69.2321C47.827 69.2404 47.8863 69.2375 47.9434 69.2235C48.0652 69.1938 48.1795 69.1391 48.2789 69.0627C48.4472 68.9341 48.5922 68.7777 48.7078 68.6003C49.0096 68.2421 49.233 67.8246 49.3634 67.3747C49.4363 67.0573 49.4619 66.7309 49.4394 66.406C49.4575 66.0754 49.4579 65.7354 49.503 65.3966C49.5162 65.2449 49.494 65.0743 49.5912 64.9562C49.9225 64.4642 50.3767 64.3783 51.3503 64.7631C51.5712 64.8417 51.7868 64.9343 51.9958 65.0404C52.5846 65.3154 53.0934 65.7359 53.4743 66.2623L53.7472 66.7485C53.8052 66.8935 53.8461 67.0448 53.869 67.1993C53.9182 67.4938 53.937 67.7927 53.9249 68.0911C53.8774 68.373 53.8084 68.6507 53.7185 68.922L53.6195 69.1072L53.4742 69.5058L53.1709 70.2849C52.5765 71.7168 51.8435 73.0871 50.9821 74.3762L50.8694 74.2478Z" fill="#231F20"/>
<path d="M51.9925 23.1786C52.2658 23.3249 51.879 23.5603 51.095 23.9234C50.7204 24.0731 50.3259 24.1678 49.9241 24.2042C49.6929 24.1605 49.4668 24.0928 49.2496 24.0022C48.8865 23.5323 48.5505 23.0421 48.2433 22.5338C48.0305 22.2049 47.8884 21.8353 47.8259 21.4486C47.668 20.6837 47.5007 19.9364 47.3429 19.1715C47.3181 18.9954 47.3291 18.8162 47.3753 18.6445C47.5277 18.0602 47.5152 17.4451 47.3394 16.8674C47.3242 16.7685 47.3361 16.6615 47.195 16.586C47.0539 16.5105 46.8543 14.8273 46.9587 14.611C47.1688 14.0537 47.4079 13.5078 47.6749 12.9755C47.7127 12.9049 47.6793 12.819 47.8023 12.7374C48.0078 12.659 48.1468 12.4658 48.1559 12.2461C48.2176 12.0081 48.3096 11.7791 48.4297 11.5647C48.5424 11.4396 48.6754 11.3343 48.823 11.2534C48.9461 11.1718 49.3459 11.2723 49.3853 11.3047C49.4247 11.3371 49.7105 11.3539 49.8846 11.3677L50.054 11.3903C50.2397 11.5774 50.4078 11.7813 50.5562 11.9991C50.7418 12.2157 50.9162 12.4415 51.0789 12.6757C51.0789 12.6757 51.2283 13.0959 51.4354 13.5356C51.6425 13.9752 51.7148 14.4336 51.7706 14.5201C51.8264 14.6067 51.7468 14.7342 51.7037 14.8359C51.6607 14.9376 52.1755 16.2224 52.2019 16.2365C52.1986 16.5183 52.3701 16.7915 52.0749 17.1099C52.0325 17.1893 52.0183 17.2157 52.0477 17.2881C52.1255 17.7797 52.1403 18.2793 52.0916 18.7746C52.1071 19.0273 52.1436 19.2782 52.2007 19.5248C52.2007 19.5248 52.1535 19.613 52.1299 19.657C52.1063 19.7011 52.0639 19.7805 52.0891 19.8393C52.1281 20.4359 52.2303 21.0265 52.3939 21.6015C52.462 21.7286 52.2005 22.4507 52.2862 22.5872C52.3719 22.7238 51.8867 23.122 51.9925 23.1786Z" fill="#231F20"/>
<path d="M78.7009 34.0533C78.634 34.3691 78.2385 34.1121 77.6605 33.4967C77.4151 33.1927 77.2136 32.8558 77.0617 32.4959C77.0334 32.2686 77.0233 32.0395 77.0314 31.8106C77.0786 31.7224 77.764 30.7168 77.9845 30.3471C78.186 30.0072 78.4526 29.7105 78.7691 29.474C79.3909 28.9901 79.9869 28.4697 80.5999 27.981C80.7402 27.8657 80.9045 27.7831 81.0808 27.7393C81.6791 27.5794 82.2182 27.2492 82.6326 26.7889C82.6798 26.7008 82.8057 26.6774 82.7882 26.498C83.1752 25.9326 83.6949 25.4707 84.3017 25.1528L85.9911 24.7297C86.0676 24.7139 86.0619 24.5974 86.2599 24.7148C86.4301 24.8596 86.6788 24.8646 86.8546 24.7267C87.0731 24.6173 87.3078 24.5437 87.5496 24.5088C87.7349 24.5247 87.9156 24.5752 88.0824 24.6577C88.275 24.8123 88.425 25.0135 88.5181 25.2423C88.5349 25.4441 88.75 25.5932 88.8927 25.7717L89.0307 25.9589C88.9465 26.5672 88.7812 27.1615 88.539 27.7259C88.539 27.7259 88.2109 28.1061 87.8733 28.5039C87.5358 28.9017 87.1547 29.2535 87.0934 29.3682C87.0321 29.4828 86.8762 29.4561 86.7591 29.4842C86.642 29.5123 85.6529 30.6616 85.6029 30.6916C85.3168 30.8447 85.1476 31.1398 84.6977 31.0692C84.6183 31.0268 84.5623 31.1102 84.5164 31.1537C84.0794 31.4888 83.6046 31.7714 83.1018 31.996C82.8645 32.1484 82.6359 32.3138 82.417 32.4916C82.3935 32.5357 82.3047 32.5109 82.2505 32.5273C82.1964 32.5437 82.107 32.5412 82.061 32.5847C81.4895 32.9377 80.9448 33.3324 80.4313 33.7655C80.3558 33.9066 79.4945 33.9902 79.3696 34.1389C79.2447 34.2875 78.6987 33.9727 78.7009 34.0533Z" fill="#231F20"/>
<path d="M57.3817 52.2599L54.4582 53.1455C54.1016 53.261 53.7614 53.4305 53.4095 53.5371C52.146 53.9273 50.8697 54.2992 49.6232 54.7211C49.0677 54.9116 48.5245 55.1426 47.99 55.3784C47.2947 55.7643 46.5204 55.9863 45.7263 56.0273C45.4221 56.0234 45.489 55.7076 45.6066 55.3395C45.6639 54.9273 45.8663 54.549 46.1773 54.2726C46.8083 53.8726 47.4822 53.5445 48.1862 53.2946C48.915 53.0141 49.6579 52.7718 50.4119 52.5686C51.2968 52.2624 52.1627 51.9038 53.005 51.4948C53.9643 51.1008 54.9319 50.7338 55.877 50.3662L57.6925 49.7497C58.6094 49.435 59.5433 49.152 60.4608 48.815C61.1617 48.5435 61.8163 48.1679 62.5626 47.8753C62.7297 47.8173 62.8887 47.7322 63.0511 47.683C63.291 47.6179 63.5471 47.655 63.7588 47.7854C63.9704 47.9158 64.1187 48.1279 64.1684 48.3715L64.2668 48.6963C64.2903 48.8775 64.2554 49.0614 64.1673 49.2215C64.0794 49.4209 63.9493 49.599 63.7861 49.7434C63.5545 49.9583 63.2861 50.1297 62.9937 50.2494C62.7176 50.3626 62.418 50.5198 62.1197 50.6324C61.5317 50.8622 60.8896 51.1085 60.2576 51.3147L57.3804 52.3046L57.3817 52.2599Z" fill="#231F20"/>
</svg>
