<svg width="36" height="64" viewBox="0 0 36 64" fill="none" xmlns="http://www.w3.org/2000/svg">
<path d="M11.8369 33.6676C11.8369 33.6676 15.8641 34.8959 16.3928 37.135C16.8903 39.2263 13.1275 40.1904 13.1275 40.1904C13.1275 40.1904 19.6581 40.9056 19.7436 38.3711C19.8291 35.8366 17.4579 33.3255 15.7475 33.4499C14.0371 33.5743 11.8369 33.6676 11.8369 33.6676Z" fill="white"/>
<path d="M12.521 35.067C11.1595 34.8412 9.76671 34.8888 8.42382 35.207C7.15307 35.4974 5.97308 36.0954 4.98748 36.9485L4.75425 37.1817L4.65318 37.2983C4.65318 37.2983 4.65318 37.3372 4.65318 37.3605C4.59119 37.4669 4.53914 37.5789 4.49769 37.6948C4.38365 38.0877 4.29536 38.4877 4.23335 38.8921C3.95895 40.7846 3.91717 42.7037 4.10896 44.6064C4.28462 46.6453 4.59105 48.6708 5.02635 50.6705C5.41709 52.4576 5.93675 54.214 6.58126 55.9261C6.98553 57.0145 7.46755 58.0796 7.92625 59.1292L8.26833 59.9066L8.54043 60.7774C8.7037 61.3294 8.87474 61.8736 9.06133 62.41C9.27901 63.0708 8.82809 63.3507 7.90292 63.1875C7.3282 63.0595 6.77722 62.8417 6.27028 62.5422C5.95933 62.3706 5.66519 62.1702 5.39176 61.9435C5.24404 61.8269 5.12742 61.6948 4.97971 61.5781C4.87476 61.4284 4.77871 61.2727 4.69205 61.1117C3.53549 58.8496 2.5807 56.49 1.8388 54.0602C1.1128 51.6201 0.64378 49.1109 0.439389 46.5733C0.314997 45.0184 0.128408 43.4635 0.0351142 41.8697C-0.0117047 41.0385 -0.0117047 40.2053 0.0351142 39.3741C0.108524 38.4536 0.301934 37.5467 0.610428 36.6764C0.824533 36.1189 1.11779 35.5953 1.48117 35.1215L1.79993 34.7405L2.07981 34.4762C2.26043 34.3002 2.45263 34.1366 2.65513 33.9864C3.4231 33.3829 4.27076 32.8885 5.17407 32.517C6.89233 31.8322 8.7202 31.4634 10.5696 31.4286C12.8169 31.3472 15.0503 31.8142 17.0769 32.7891C19.0221 33.662 20.4563 35.383 20.9641 37.4538C21.0066 37.6847 21.03 37.9188 21.0341 38.1535C21.0341 38.3868 20.9874 38.62 20.9719 38.8532C20.9563 39.0865 20.7931 39.2886 20.692 39.4985L20.2877 40.0661L19.7746 40.5481C19.5934 40.6926 19.401 40.8226 19.1993 40.9368C18.8654 41.1292 18.5171 41.2956 18.1575 41.4344C16.9422 41.8652 15.6735 42.1268 14.3869 42.2118C13.7649 42.2896 13.1585 42.2662 12.5365 42.2896C11.9146 42.3129 11.3004 42.2896 10.694 42.204C10.0876 42.1185 9.62887 42.1418 9.13907 42.0408C8.64928 41.9397 8.23723 41.862 7.90292 41.7687C7.62875 41.675 7.36753 41.547 7.12547 41.3877C6.77642 41.169 6.52141 40.8281 6.41022 40.4315C6.34405 40.2704 6.29203 40.1039 6.25473 39.9339C6.19253 39.4363 7.0866 39.1564 8.47046 39.1564C10.4725 39.3315 12.4859 39.3315 14.4879 39.1564C15.3736 39.0817 16.2447 38.8855 17.0769 38.5733C17.2479 38.4956 17.3878 38.4101 17.5433 38.3401C17.6988 38.2701 17.6444 38.2701 17.6522 38.2624V38.2624C17.5822 38.2624 17.6522 38.3168 17.6522 38.2624C17.6292 38.2141 17.6033 38.1674 17.5744 38.1224C17.5245 38.0366 17.47 37.9536 17.4112 37.8736C17.2712 37.7181 17.1779 37.5316 17.038 37.3683C16.7235 36.9896 16.3477 36.6664 15.9262 36.412C14.8967 35.7373 13.7316 35.2968 12.5132 35.1215L12.521 35.067Z" fill="white"/>
<path d="M10.3288 9.0923C10.4221 8.68025 10.5153 8.27597 10.6242 7.86393L10.733 7.43633C10.7625 7.25239 10.8041 7.0706 10.8574 6.89211L11.1762 5.81145C11.3628 5.08065 11.6737 4.43536 11.907 3.75898L12.3812 2.91156L12.6145 2.49173L12.871 2.15743C13.4006 1.35494 14.1513 0.723052 15.0323 0.338194C15.4491 0.147871 15.8969 0.0346081 16.354 0.00388959C16.6167 -0.0117483 16.88 0.0198501 17.1315 0.0971838C17.3516 0.172101 17.5628 0.271183 17.7612 0.392615C18.277 0.736205 18.7207 1.17725 19.0673 1.69096C19.4975 2.36994 19.8029 3.1203 19.9692 3.9067C20.1555 4.7494 20.2828 5.60408 20.3501 6.46451C20.3501 6.90766 20.4123 7.35081 20.4279 7.79396C20.4434 8.2371 20.4279 8.73467 20.4279 8.92903C20.4279 9.98637 20.4279 11.0359 20.3423 12.0855C20.2335 14.1691 20.078 16.2371 19.7903 18.3051C19.5804 20.1321 19.3627 21.9669 19.1528 23.7473C18.9733 26.1224 18.3813 28.448 17.4036 30.6199C17.0537 31.2963 16.6261 31.0242 16.2996 30.3012C15.8252 29.3002 15.5808 28.2058 15.5843 27.0981C15.6232 26.5305 15.5843 25.9552 15.6621 25.3877L15.7942 23.6851L16.0119 20.2487C16.0819 19.1059 16.1519 17.9164 16.2141 16.8046C16.2763 15.6929 16.4395 14.4723 16.5484 13.3527C16.6819 11.957 16.6949 10.5524 16.5872 9.1545L16.5795 8.68802V8.33817L16.4862 7.60737C16.441 7.28738 16.3298 6.98027 16.1596 6.70552C16.0783 6.57414 15.919 6.5136 15.7709 6.55781C15.6453 6.60125 15.5328 6.6762 15.4444 6.77549C15.0618 7.25178 14.7765 7.79857 14.6047 8.38482C14.56 8.49147 14.5211 8.60047 14.4881 8.71135L14.2782 9.37996C14.146 9.83865 14.0061 10.2896 13.8895 10.756C13.6329 11.6812 13.4308 12.6297 13.2597 13.5782C12.7137 16.4572 12.3837 19.373 12.2724 22.3012C12.2521 24.5332 12.4055 26.7635 12.7311 28.9717C12.7933 29.4538 12.9021 29.9125 12.9565 30.3945C13.0121 31.0368 12.9728 31.6839 12.8399 32.3148C12.7117 32.7011 12.4805 33.0451 12.1713 33.3099C12.0472 33.4378 11.9148 33.5573 11.7748 33.6675C11.5494 33.8153 11.3006 33.722 10.9974 33.4265C10.5348 33.02 10.1729 32.5117 9.94003 31.9416C9.54392 30.928 9.28254 29.8668 9.16258 28.7851C9.00709 27.7123 8.8827 26.6161 8.8205 25.5276C8.70134 23.3258 8.72211 21.1185 8.8827 18.9193C9.00191 17.2815 9.18072 15.6436 9.41914 14.0058C9.54353 13.1817 9.68347 12.3654 9.83119 11.549C9.9789 10.7327 10.1033 9.90085 10.2666 9.07675L10.3288 9.0923Z" fill="white"/>
<path d="M30.3092 13.4149C30.5036 12.7619 30.6746 12.1011 30.8224 11.4558C30.9701 10.8105 31.1411 10.1885 31.2422 9.57434V9.34888V9.20893C31.2456 9.17273 31.2456 9.13629 31.2422 9.10009C31.2506 9.02257 31.2506 8.94437 31.2422 8.86686C31.2502 8.68402 31.2042 8.50287 31.11 8.34596C31.0504 8.2211 30.9065 8.16088 30.7757 8.20602C30.6711 8.27568 30.5723 8.35368 30.4803 8.43926C30.3924 8.50877 30.3116 8.5869 30.2393 8.67249C30.1872 8.72205 30.1404 8.77675 30.0993 8.83576L30.0527 8.89018L29.9749 9.03012L29.8039 9.31778C29.3608 10.0952 28.9643 10.8727 28.5133 11.7046C27.6426 13.3217 26.8418 15.0087 26.111 16.7269C25.4657 18.2818 24.9759 19.8367 24.4473 21.3916C24.1285 22.3945 23.8564 23.413 23.561 24.4159L23.11 25.9086C22.9779 26.3906 22.698 26.8649 22.5503 27.3002C22.4492 27.5646 22.3015 27.5879 22.0994 27.6423C21.8972 27.6967 21.6096 27.5879 21.3219 27.2458C20.9749 26.8231 20.692 26.3515 20.4823 25.8464C20.2616 25.2561 20.1947 24.6193 20.2879 23.9961C20.4589 22.861 20.6766 21.7492 20.9254 20.653C21.1459 19.5509 21.458 18.4691 21.8583 17.4188C22.641 15.3013 23.5818 13.2456 24.6727 11.2692C25.007 10.6783 25.3258 10.0641 25.6368 9.44994L26.6785 7.59961L27.0439 7.13314C27.1839 6.90768 27.3161 6.68222 27.4793 6.44898C27.7903 5.98251 28.1168 5.54714 28.4434 5.12731C29.0168 4.37594 29.7822 3.79312 30.6591 3.44024C31.1239 3.27285 31.6326 3.27285 32.0974 3.44024C32.3228 3.55686 32.5483 3.6657 32.7738 3.7901L33.3802 4.21769C34.114 4.98094 34.6133 5.9389 34.8185 6.97765C34.9411 7.53956 35.0036 8.11291 35.0051 8.68804C35.0267 8.94674 35.0267 9.20679 35.0051 9.46549C35.0051 9.67541 35.0051 9.89309 34.9584 10.0875C34.8815 10.8744 34.7438 11.6542 34.5464 12.4198C34.0546 14.2483 33.4443 16.0428 32.7193 17.792C31.6698 20.4198 30.387 22.931 29.1742 25.4188C28.2179 27.3547 27.3783 29.3061 26.3753 31.2186C26.1499 31.6384 25.9477 32.066 25.6912 32.4781C25.3954 33.0549 24.9728 33.5573 24.455 33.9474C24.0758 34.1316 23.6443 34.1783 23.2344 34.0796C23.053 34.0577 22.8736 34.0213 22.698 33.9708C22.4414 33.8697 22.3326 33.6131 22.3093 33.1933C22.2629 32.6777 22.3654 32.1597 22.6047 31.7006L24.9992 26.6161C25.7767 24.8746 26.5542 23.102 27.3316 21.3216C28.4637 18.7195 29.4195 16.0442 30.1926 13.3139L30.3092 13.4149Z" fill="white"/>
<path d="M26.3595 49.1156C24.8124 51.084 23.1095 52.9247 21.2672 54.62C20.6149 55.2861 19.9132 55.902 19.1681 56.4625C18.4602 56.982 17.6961 57.4201 16.8902 57.7687C16.4393 57.9637 15.967 58.1046 15.483 58.1885C14.9085 58.2953 14.3167 58.2633 13.7571 58.0952L13.3139 57.9397C13.1817 57.8697 13.0496 57.7842 12.9252 57.7065C12.6657 57.5429 12.4346 57.338 12.241 57.1001C12.0498 56.8626 11.8904 56.6013 11.7668 56.3226C11.6695 56.0697 11.5915 55.8098 11.5335 55.5451C11.3971 54.6144 11.5015 53.6642 11.8367 52.7852C12.3201 51.4219 12.9899 50.132 13.827 48.9524C14.8138 47.4586 16.0779 46.168 17.551 45.1506C18.0175 44.8396 18.2507 45.2206 18.243 45.8736C18.2173 46.7104 17.947 47.5212 17.4655 48.206C17.2012 48.5325 16.9835 48.8824 16.7425 49.2167C16.6181 49.3877 16.5092 49.5588 16.4082 49.7298L16.0505 50.2196C15.6181 50.8604 15.2311 51.5306 14.8921 52.2254C14.5564 52.836 14.3152 53.4939 14.1769 54.1768C14.1236 54.4323 14.1027 54.6935 14.1147 54.9543C14.1536 55.1253 14.1536 55.273 14.2235 55.3508C14.2935 55.4285 14.2624 55.4052 14.2935 55.4363C14.313 55.4707 14.3476 55.4938 14.3868 55.4985C14.3868 55.4985 14.4334 55.5451 14.4879 55.5451C14.5394 55.5371 14.5918 55.5371 14.6433 55.5451C15.0004 55.503 15.3447 55.3865 15.654 55.2031C16.4738 54.7162 17.2332 54.1343 17.9164 53.4694C19.5793 51.9197 21.075 50.1999 22.379 48.3382C23.2094 47.1859 23.9726 45.9866 24.6647 44.7463C25.1778 43.8134 25.6909 42.8727 26.103 41.9086C26.2118 41.6676 26.2974 41.4188 26.3906 41.1778C26.4373 41.0612 26.4839 40.9368 26.5228 40.8124L26.6161 40.5248C26.7175 40.2275 26.7853 39.9198 26.8182 39.6074C26.9323 39.1655 26.7385 38.7017 26.344 38.4723C25.9553 38.2624 25.4577 38.5578 25.1778 38.7755C25.0379 38.8844 24.9213 39.0321 24.8202 39.1098C24.7462 39.1764 24.6543 39.2197 24.5559 39.2342C24.5559 39.2342 24.3537 39.2342 24.2604 39.2342C24.1467 39.2459 24.0321 39.2459 23.9183 39.2342C23.7012 39.2133 23.4913 39.1442 23.3042 39.0321C23.0927 38.8754 22.902 38.6925 22.7366 38.4879C22.5831 38.3184 22.4476 38.1334 22.3323 37.9359C22.1968 37.5928 22.1487 37.2215 22.1924 36.8552C22.1907 36.6415 22.233 36.4298 22.3168 36.2332C22.361 36.1309 22.413 36.0322 22.4723 35.9378L22.5656 35.7901L22.62 35.7124C22.62 35.6424 22.62 35.6424 22.62 35.6346V35.6346L22.6822 35.5724C23.2093 35.1304 23.7622 34.7202 24.3382 34.344C24.8904 33.9898 25.5052 33.7444 26.1496 33.621C26.4454 33.5762 26.7447 33.558 27.0437 33.5666H27.4946L27.9222 33.6599C28.5174 33.8082 29.0775 34.0723 29.5704 34.4373L30.2313 35.2148C30.4398 35.4686 30.6149 35.7482 30.7521 36.0467C30.8843 36.3499 30.9621 36.6842 31.0787 37.0107C31.1953 37.3372 31.172 37.726 31.2186 38.0836C31.2653 38.4412 31.2186 38.861 31.1797 39.242C31.1289 39.6394 31.0457 40.032 30.931 40.4159C30.8486 40.8251 30.7368 41.2278 30.5967 41.621L30.4412 42.0875C30.4023 42.2041 30.3634 42.3207 30.3168 42.4295C29.3368 44.8419 28.0288 47.1075 26.4295 49.1623L26.3595 49.1156Z" fill="white"/>
<path d="M30.3092 51.8055C29.2032 53.2485 28.0006 54.6148 26.7096 55.8949C26.2198 56.3458 25.7922 56.8434 25.2635 57.2554C24.33 57.9887 23.3395 58.6465 22.3015 59.2224C21.7614 59.5221 21.2001 59.7819 20.6222 59.9998C20.0092 60.246 19.361 60.393 18.7019 60.4352C18.0497 60.4593 17.4029 60.309 16.8282 59.9998C16.1633 59.6836 15.6774 59.0833 15.5065 58.3672C15.4284 57.8946 15.485 57.4097 15.6698 56.9678C15.8209 56.5987 16.0398 56.2612 16.3151 55.9726C16.7585 55.4701 17.2844 55.0469 17.87 54.7209C18.2354 54.5344 18.4142 54.8298 18.4453 55.3507C18.4829 55.9727 18.3984 56.596 18.1965 57.1855C18.1061 57.3846 18.0383 57.5932 17.9944 57.8074C17.9944 57.8852 17.9944 57.8074 17.9944 57.8541V57.8541C17.9944 57.8541 17.9477 57.8541 18.1188 57.9474C18.3765 58.0912 18.678 58.1355 18.9662 58.0718C19.1983 58.0452 19.4257 57.9876 19.6426 57.9007C19.8758 57.7763 20.1168 57.6908 20.3578 57.5431C21.5658 56.756 22.6197 55.7548 23.4676 54.5888C24.5016 53.3371 25.6212 52.1243 26.5774 50.7637C27.1737 49.9439 27.7215 49.0898 28.2179 48.2059C28.9934 46.9433 29.5481 45.5577 29.8583 44.1087C29.9515 43.656 29.8999 43.1854 29.7106 42.7637C29.6882 42.6971 29.6445 42.6397 29.5862 42.6005C29.5521 42.5732 29.5036 42.5732 29.4696 42.6005V42.6005V42.6005L29.6406 42.4605V42.4605L29.7339 42.3906C29.7883 42.3906 29.8583 42.2662 29.8894 42.2428C29.9221 42.21 29.9508 42.1735 29.9749 42.134C30.0526 42.0252 29.9749 42.0485 29.9749 42.2739C29.959 42.4264 29.959 42.5802 29.9749 42.7326C29.9749 42.8337 29.9749 42.9348 29.9749 43.0358V43.0903V43.0903L29.8039 43.1291C29.4778 43.2155 29.1348 43.2155 28.8087 43.1291C28.4705 42.9683 28.1848 42.7149 27.9846 42.3983C27.8602 42.2273 27.7281 42.0718 27.627 41.9085C27.469 41.6305 27.4166 41.3048 27.4793 40.9912C27.5308 40.6061 27.7021 40.2471 27.9691 39.9649C28.2181 39.6659 28.5087 39.4041 28.832 39.1875C29.494 38.7565 30.319 38.6587 31.0633 38.9231C31.5746 39.0703 32.0436 39.3367 32.4316 39.7006C32.5198 39.7783 32.5975 39.8561 32.6649 39.9338C32.7349 40.0116 32.7815 40.0738 32.8359 40.1437L33.1391 40.5791C33.3074 40.8526 33.4431 41.1448 33.5434 41.4498C33.644 41.7003 33.717 41.961 33.7611 42.2273C33.9088 43.0933 33.8929 43.9793 33.7144 44.8395C33.5826 45.5399 33.3875 46.2269 33.1314 46.892C32.397 48.6554 31.452 50.3235 30.317 51.8599L30.3092 51.8055Z" fill="white"/>
</svg>
