<svg width="116" height="125" viewBox="0 0 116 125" fill="none" xmlns="http://www.w3.org/2000/svg">
<path d="M25.0265 103.065C24.4959 101.549 23.9654 100.17 23.5106 98.639C23.2534 97.843 23.0409 97.0333 22.874 96.2136C22.874 96.0014 22.783 95.7134 22.7375 95.4557V94.5765C22.744 94.0044 22.8152 93.4349 22.9498 92.8788C23.2427 91.466 23.8545 90.1387 24.7385 88.9983C26.1536 87.3969 27.7924 86.0083 29.6043 84.8752C31.2869 83.7535 33.0301 82.7985 34.7581 81.8435C36.4862 80.8885 37.7898 80.1761 39.3056 79.4333C41.2118 78.3482 43.2497 77.5127 45.369 76.9474C46.0511 76.7958 46.233 77.4779 46.0056 78.3723C45.7236 79.4764 45.0572 80.4438 44.126 81.1008C42.2615 82.2225 40.4728 83.4351 38.6235 84.4962L33.0452 87.5279C30.9524 88.7479 29.1886 90.4597 27.9065 92.515C27.6244 92.9262 27.4142 93.3824 27.2851 93.8641C27.1708 94.3168 27.1708 94.7908 27.2851 95.2435C27.6087 96.6254 28.0136 97.9869 28.4977 99.3211C29.0998 101.027 29.7879 102.702 30.5593 104.339C31.6523 106.843 32.9715 109.243 34.5004 111.508C35.6783 113.122 37.1242 114.522 38.7751 115.647C39.1086 115.859 39.4572 116.026 39.7452 116.177C40.3212 116.48 40.5486 116.662 40.6547 117.011C40.788 117.507 40.8743 118.015 40.9124 118.527C40.9124 118.815 41.0488 119.103 41.0943 119.36C41.1928 119.849 40.9824 120.348 40.5638 120.619C40.2905 120.875 39.9373 121.031 39.5633 121.058C39.1283 121.148 38.6796 121.148 38.2445 121.058C35.9707 120.252 33.9623 118.836 32.4389 116.965C31.0282 115.32 29.7936 113.532 28.7554 111.63C27.2409 108.88 25.9189 106.028 24.7991 103.096L25.0265 103.065Z" fill="#231F20"/>
<path d="M73.0026 54.3767C73.9062 57.3717 75.5542 60.0888 77.7927 62.2742C78.2323 62.6834 78.6718 63.0624 79.1266 63.4262C79.5813 63.79 80.1271 64.0629 80.6424 64.4115C83.6741 66.8672 88.0246 67.5796 92.4205 67.4432C94.3712 67.3165 96.2872 66.8657 98.0897 66.1092C99.2083 65.6337 100.288 65.0711 101.318 64.4267C102.304 63.79 103.365 63.2443 104.35 62.5319C104.956 62.1377 105.699 62.6683 105.957 63.8658C106.121 64.5885 106.09 65.342 105.866 66.0486C105.637 66.9098 105.137 67.6748 104.441 68.2314C99.3516 71.8925 93.0093 73.3662 86.827 72.3242C84.9494 71.9831 83.0999 71.5018 81.2942 70.8841C80.351 70.5482 79.4382 70.1323 78.5657 69.6411C77.7927 69.1409 77.0499 68.6255 76.2617 68.1253C73.0014 65.6504 70.3988 62.4128 68.6825 58.6968C68.1554 57.5607 67.7343 56.3784 67.4243 55.1649C67.2576 54.5586 67.197 53.9219 67.0757 53.3156C66.9468 52.7017 66.8708 52.0779 66.8483 51.4511C66.5839 47.6654 67.4098 43.8832 69.2282 40.5522C70.5353 37.9553 72.3739 35.6623 74.6246 33.8219C75.14 33.443 75.6705 33.0943 76.1404 32.7608C78.2626 31.6846 79.1721 31.912 79.9906 32.6699C80.1787 32.8352 80.3559 33.0124 80.5212 33.2004C80.7415 33.5692 80.7415 34.0292 80.5212 34.3979C80.2583 34.9889 79.8582 35.5086 79.354 35.9138C78.4596 36.5353 77.8381 37.566 77.0651 38.1572C76.7013 38.521 76.4133 38.9455 76.0646 39.3093C75.7101 39.6577 75.395 40.044 75.1248 40.4613C74.8519 40.8857 74.5791 41.2798 74.2911 41.674C74.0031 42.0681 73.8666 42.5531 73.6241 42.9776C73.3816 43.402 73.3967 43.402 73.2906 43.6294L73.0633 44.3115C72.942 44.7814 72.6995 45.2059 72.6237 45.6909C71.9246 48.5594 72.0881 51.5704 73.0936 54.3463L73.0026 54.3767Z" fill="#231F20"/>
<path d="M35.9099 29.517C35.3046 28.4636 34.6311 27.4509 33.8938 26.4853C33.0601 25.5152 32.1961 24.5451 31.2563 23.6052C30.6044 22.9231 29.7404 22.4077 29.0886 21.7256C26.6481 19.2699 24.1015 16.9204 21.4185 14.6315C20.2535 13.6094 19.0285 12.6578 17.7502 11.7817C16.0472 10.7448 14.4702 9.51384 13.0511 8.11339C12.6266 7.64348 13.0511 7.05231 13.9757 6.59756C15.0017 6.08892 16.1818 5.98607 17.2802 6.30955C19.175 7.11294 21.0547 7.96181 22.8585 8.9471C23.7744 9.41722 24.6513 9.95958 25.4809 10.569C26.2843 11.236 26.9968 11.9181 27.8153 12.6609C29.5888 14.4344 31.8929 15.6926 33.8786 17.2084C36.0957 19.0258 38.211 20.9639 40.2148 23.0141C40.8363 23.7113 41.4427 24.3783 42.049 25.1211L42.9585 26.2731C43.2617 26.6521 43.5345 27.1675 43.8225 27.607C44.3 28.4116 44.6479 29.2864 44.8533 30.1991C44.9897 30.9116 45.0958 31.624 45.1716 32.3971C45.3635 34.0922 45.1877 35.8087 44.6562 37.4297C44.2252 38.8138 43.5918 40.1266 42.7766 41.3254C42.3967 41.8876 41.9868 42.429 41.5488 42.9473C41.1231 43.4073 40.6619 43.8331 40.1694 44.2206C39.7759 44.5698 39.3607 44.8939 38.9264 45.1907C37.2741 46.0851 36.4707 45.6303 35.1368 43.4475C34.8336 42.9473 34.5001 42.4471 34.2424 41.9317C33.3892 40.5633 33.2644 38.8624 33.909 37.3842C34.5486 36.3119 35.1255 35.2035 35.637 34.0645C35.6284 34.0245 35.6284 33.9832 35.637 33.9432V33.9432C35.637 33.9432 36.0615 34.1706 35.8492 34.0948L35.5612 33.9887V33.9887C35.5612 33.9887 35.5612 33.8068 35.6977 33.6704L35.8644 33.2005L36.016 32.5487L36.1069 31.7908V31.7908L38.4262 31.3966H38.123H37.7743C37.544 31.4327 37.3162 31.4833 37.0922 31.5482L36.4556 31.7604C36.304 31.7604 36.3646 31.7604 36.3646 31.7604V31.7604C36.5314 31.8362 36.3646 31.5634 36.3646 31.427C36.3921 31.2461 36.3921 31.0621 36.3646 30.8812C36.2072 30.3836 35.9936 29.9056 35.728 29.4564L35.9099 29.517Z" fill="#231F20"/>
<path d="M37.1835 28.9711C32.3631 24.4236 27.2244 20.0125 21.9493 15.9046C20.0242 14.3888 17.9475 13.1609 15.9921 11.7664C15.128 11.16 14.2792 10.5385 13.4 9.97769L12.7482 9.56841L12.4299 9.37135L12.3237 9.2804L11.9751 8.9924C11.6655 8.76984 11.3356 8.57698 10.9898 8.41638C10.807 8.32414 10.603 8.28228 10.3986 8.29511C10.1864 8.29511 10.1864 8.5528 10.1106 8.70439C10.0348 8.85597 9.88325 9.40167 9.76198 9.81095C9.6884 10.0066 9.63754 10.21 9.6104 10.4173C9.51945 10.872 9.4285 11.448 9.33755 11.9331C8.98891 14.0553 8.68574 16.2078 8.39773 18.3754C7.91266 22.2105 7.68529 26.1062 7.4276 29.9716C7.26085 32.4727 7.1699 34.9587 6.88189 37.5507C6.72001 38.8231 6.47699 40.0838 6.15429 41.3252C5.97239 41.9618 5.80565 42.5833 5.59343 43.22C5.38122 43.8566 5.13868 44.4933 4.8052 45.1754C3.78959 46.9792 2.97104 45.812 2.12217 44.3114C0.864796 42.3133 0.13465 40.029 0 37.672C0.242534 32.8062 0.439592 27.7736 0.773076 22.7259C0.954977 20.1793 1.16719 17.6478 1.47036 15.0709C1.60679 13.7976 1.78869 12.5091 1.98574 11.2055L2.34955 8.96208C2.45259 7.83997 2.62983 6.72592 2.88009 5.62724L3.41063 3.85371L3.66832 2.95937C3.75927 2.6562 3.95633 2.53493 4.09276 2.32272C4.72941 1.54964 5.06289 0.594665 6.2604 0.230864C8.53051 -0.278383 10.9085 0.0613323 12.9452 1.18584C13.5364 1.42837 14.1276 1.73154 14.7188 2.01955L16.2346 2.85326L18.4932 4.1114C19.9181 4.9148 21.2975 5.74851 22.6314 6.62769C28.4826 10.4931 34.0154 14.6919 39.4269 19.0575C41.0943 20.3915 42.7466 21.7709 44.3837 23.1806L45.5963 24.2569C45.8237 24.4388 45.9753 24.6055 46.233 24.8026L47.1122 25.606C48.2866 26.5932 49.349 27.7064 50.2803 28.9256C50.4925 29.244 50.6744 29.5471 50.8563 29.8655C51.1044 30.2889 51.2642 30.7581 51.3262 31.2449C51.4183 31.7492 51.3924 32.2681 51.2504 32.7607C50.9619 33.7751 50.4948 34.7298 49.871 35.5802C49.25 36.4748 48.5499 37.3119 47.7791 38.0813L46.5968 39.2333L45.6115 40.0822C43.1249 42.1147 40.5235 44.0025 37.8201 45.7363C33.6121 48.7217 29.1483 51.329 24.4807 53.5277C23.4197 53.9824 22.3889 54.4978 21.252 54.8616C20.364 55.1505 19.4503 55.3535 18.5235 55.4679C17.847 55.5216 17.1667 55.4391 16.5226 55.2254C15.4412 54.8612 14.5688 54.0494 14.1276 52.9971C13.8388 52.5131 13.5904 52.0061 13.3848 51.4813C12.9301 49.7077 14.2943 48.0706 16.5226 46.5548C20.0545 44.7661 23.5864 42.7046 27.1335 40.4915C28.8767 39.3546 30.6805 38.339 32.454 37.2324C34.2276 36.1259 35.9405 34.9738 37.5624 33.7915C38.2294 33.2912 38.8812 32.7759 39.4875 32.2756C40.0939 31.7754 39.7755 32.0634 39.8059 32.0331V32.0331C39.8496 32.0508 39.8985 32.0508 39.9423 32.0331C39.9558 31.9835 39.9558 31.9311 39.9423 31.8815V31.8815L39.7907 31.7299L39.4421 31.3964L38.6538 30.6537L37.047 29.1379L37.1835 28.9711Z" fill="#231F20"/>
<path d="M85.7506 75.9621C77.841 74.9503 70.7609 70.5528 66.3479 63.9112C64.6753 61.586 63.4376 58.9771 62.6947 56.2108C62.0712 53.7354 61.9017 51.1674 62.1945 48.6316C62.4509 46.1304 63.1435 43.6935 64.2409 41.4314C65.2562 39.1991 66.634 37.1503 68.3185 35.368C69.9107 33.6169 71.7308 32.0874 73.73 30.8205C77.1033 28.5598 80.8571 26.9268 84.8108 26.0002C87.4205 25.338 90.1355 25.1989 92.7992 25.5909C95.6057 26.0136 98.1439 27.4943 99.8933 29.7291C100.939 31.1388 99.8933 31.533 98.2411 31.6391C97.2815 31.6903 96.3252 31.7915 95.3761 31.9422C94.4132 32.0921 93.4403 32.1681 92.4657 32.1696C90.6298 32.1137 88.7995 32.4016 87.0694 33.0185C85.22 33.64 83.4162 34.5343 81.5517 35.368C80.6271 35.8076 79.7327 36.3078 78.8687 36.8081C78.0457 37.3202 77.2512 37.8769 76.4888 38.4755C74.9595 39.6762 73.5893 41.0668 72.4112 42.6137C70.9622 44.4923 70.1118 46.7635 69.9707 49.1318C69.8329 51.5121 70.2426 53.8923 71.1682 56.0895C71.681 57.3537 72.321 58.5624 73.0782 59.6972C73.8454 60.8045 74.7352 61.8215 75.7309 62.7289C77.7953 64.6414 80.2527 66.0796 82.9311 66.9429C84.6105 67.4945 86.3519 67.8356 88.1153 67.9585C89.9065 68.062 91.7036 67.9449 93.4662 67.6098C96.0664 67.1787 98.5281 66.14 100.651 64.5782C102.72 62.9674 104.295 60.8091 105.199 58.3481C106.498 54.5041 106.385 50.3232 104.88 46.5549C104.562 45.7818 104.229 45.039 103.895 44.3569C103.417 43.4722 103.089 42.5143 102.925 41.5223C102.962 40.6099 103.179 39.7138 103.562 38.8848C103.759 38.3997 103.865 37.854 104.062 37.3689C104.411 36.5338 105.294 36.0544 106.184 36.2169C107.7 36.3831 109.092 37.1335 110.065 38.3087C110.994 39.3179 111.803 40.432 112.475 41.6284C113.139 42.7898 113.649 44.0333 113.991 45.3271C114.803 47.9138 115.162 50.6216 115.052 53.3307C114.83 59.0674 112.573 64.5378 108.685 68.7619C105.71 71.9585 101.888 74.2451 97.6651 75.3558C95.7148 75.8948 93.7127 76.2251 91.6927 76.3411C89.708 76.4945 87.7133 76.459 85.7354 76.235L85.7506 75.9621Z" fill="#231F20"/>
<path d="M21.0702 105.384C19.8272 103.156 18.66 100.837 17.5535 98.5481L17.0836 97.5325C16.8562 97.0171 16.6137 96.5017 16.4014 96.0166C16.1892 95.5315 16.0073 94.9555 15.8254 94.5008C15.6435 94.046 15.2342 93.4549 15.2039 92.9849C14.8572 92.0041 14.8572 90.9341 15.2039 89.9533C15.3876 89.4993 15.6379 89.0753 15.9467 88.6951C16.2915 88.3176 16.6558 87.9584 17.0381 87.6189C17.6596 87.2096 18.2508 86.77 18.9026 86.3911L19.8575 85.815L20.6458 85.3603L22.965 84.1325C25.1933 82.9956 27.3003 81.7374 29.5286 80.737C33.4849 78.9786 37.4867 77.3567 41.6553 75.9015C43.7168 75.1739 45.7632 74.3856 47.9915 73.9006L48.8403 73.7035C49.2252 73.6075 49.6148 73.5316 50.0075 73.4761C50.7937 73.3037 51.5979 73.2273 52.4025 73.2488C52.7844 73.2375 53.1662 73.2731 53.5394 73.3549C53.9284 73.4121 54.3035 73.5406 54.646 73.7338C55.3177 74.1182 55.9054 74.6337 56.374 75.2497L56.9955 76.1137L57.5261 77.0384L58.0111 77.9933L58.4052 78.8725C58.8145 79.7972 59.1783 80.7218 59.527 81.6313C60.2243 83.4503 60.8761 85.239 61.5127 86.9974C63.2661 91.3142 64.7395 95.7395 65.9238 100.246C66.1018 100.754 65.8993 101.317 65.4387 101.595C64.7638 101.987 63.9541 102.076 63.2104 101.837C62.0288 101.556 60.9155 101.04 59.9362 100.322C59.3818 99.9074 58.8736 99.4348 58.4204 98.9119C57.9854 98.3568 57.6284 97.7448 57.3593 97.0929C55.4797 92.4392 53.9487 87.7705 52.2964 83.5564L51.6749 82.0406L51.584 81.8739V81.8739V81.5707C51.584 81.4646 51.584 81.2372 51.4476 81.1614C51.3779 81.1141 51.3012 81.0783 51.2202 81.0553H51.0534L50.2804 81.2524L46.8394 82.0254C41.3369 83.5413 35.9406 86.4062 30.6503 88.968C29.2709 89.6501 27.8915 90.3322 26.5424 91.0447L24.5415 92.1058L23.6623 92.5757L23.2075 92.8334C23.0256 92.9243 23.0863 93.1517 23.1014 93.2881C23.1711 93.627 23.2622 93.9612 23.3743 94.2886L23.5713 94.8039L24.0412 95.9105C24.3747 96.6684 24.7234 97.4263 25.0872 98.2146C25.936 100.003 26.8455 101.792 27.8005 103.55C28.7555 105.309 29.8621 107.006 30.9383 108.704C32.2382 110.723 33.6449 112.671 35.1523 114.54C35.7849 115.313 36.4686 116.042 37.1987 116.723C37.6838 117.178 38.4114 117.678 39.0935 117.253C39.2602 117.253 39.4118 117.132 39.5786 117.087L39.8211 116.981L40.2152 116.799L41.822 116.071C46.0815 114.025 50.1136 111.524 54.5399 109.432C55.4948 108.962 56.465 108.477 57.5715 108.068C61.4369 106.552 63.2256 107.006 64.3473 108.977C64.6244 109.362 64.8534 109.779 65.0294 110.22C65.234 110.99 65.047 111.812 64.5292 112.418C64.2416 112.794 63.9109 113.135 63.5439 113.434C63.0729 113.79 62.5647 114.095 62.0281 114.343C58.9964 115.859 55.6616 117.648 52.251 119.345C50.5532 120.209 48.8252 121.104 47.0062 121.907L44.2322 123.135L42.7163 123.741C42.6254 123.741 42.3222 123.832 42.11 123.923L41.4127 124.181L40.0182 124.681C38.2107 125.114 36.3057 124.82 34.7127 123.863C34.0004 123.462 33.3345 122.984 32.727 122.438C32.4238 122.15 32.1055 121.892 31.8175 121.589C31.6023 121.389 31.3998 121.177 31.2112 120.952C30.5139 120.209 29.9075 119.436 29.3315 118.754C28.1946 117.238 27.1942 115.813 26.2998 114.343C25.4055 112.873 24.4657 111.311 23.6017 109.887L22.3284 107.643L21.0096 105.43L21.0702 105.384Z" fill="#231F20"/>
</svg>
