<svg width="73" height="64" viewBox="0 0 73 64" fill="none" xmlns="http://www.w3.org/2000/svg">
<path d="M61.675 54.1481C59.2344 56.514 56.4228 58.4642 53.3518 59.9212C50.3528 61.323 47.1906 62.3452 43.9385 62.9642C41.6229 63.4559 39.2698 63.7508 36.9045 63.8458C28.5844 64.0373 20.393 61.7685 13.3569 57.3238C10.2393 55.3458 7.45284 52.8889 5.10012 50.0434C3.57345 48.2114 2.29822 46.1838 1.30824 44.0143C0.439136 41.7976 -0.00466736 39.4371 3.70112e-05 37.0562C3.70112e-05 35.5868 1.01437 35.729 2.27517 36.6675C3.87598 37.9042 5.25445 39.4045 6.35144 41.104C7.96079 44.6278 10.3421 47.7446 13.319 50.2235C16.4314 52.8455 19.9545 54.9369 23.7467 56.4138C28.4202 58.3097 33.871 58.5372 38.9901 58.0822C44.6536 57.7102 50.102 55.7704 54.7264 52.4797C57.5316 50.4064 59.8967 47.7963 61.6845 44.8011C64.4533 40.132 66.1349 34.8993 66.6045 29.4914C66.8936 25.3175 66.6129 21.1237 65.7702 17.0256C65.5996 16.125 65.3626 15.2529 65.192 14.3523C64.7749 10.9775 64.8791 9.85891 66.2821 8.74031C66.5389 8.48668 66.8112 8.24923 67.0974 8.02933C67.8937 7.46055 69.5716 8.56967 70.5385 11.1671C71.3113 13.0986 71.8615 15.1118 72.1785 17.1678C72.5414 19.2643 72.7599 21.3832 72.8326 23.5097C72.9832 27.9025 72.5271 32.2951 71.477 36.5632C69.9288 43.235 66.5736 49.3517 61.7793 54.2429L61.675 54.1481Z" fill="#231F20"/>
<path d="M18.334 10.9965C18.6847 14.0679 20.5902 17.9451 23.5383 19.3007C24.8086 19.8884 26.6951 19.5187 27.0174 17.8882C27.4538 15.0143 26.8666 12.0784 25.3584 9.59346C24.7535 8.40301 23.8566 7.3854 22.7515 6.63579C21.9435 6.21284 20.9846 6.19038 20.1576 6.57505C19.3307 6.95971 18.7301 7.7076 18.5331 8.59809C17.6799 11.5273 22.2491 12.7786 23.1023 9.84941L23.2066 9.47022L22.1164 10.8922L21.5571 11.0533L19.9076 10.3613C21.5097 11.6411 22.8748 14.5419 22.4671 16.6274L25.9462 15.2054C24.4388 14.2748 23.4033 12.7422 23.1023 10.9965C23.0628 9.70429 22.0245 8.66601 20.7324 8.62653C19.4278 8.63684 18.3727 9.69188 18.3624 10.9965H18.334Z" fill="#231F20"/>
<path d="M32.686 4.65453C33.0462 7.79231 35.018 11.9823 38.0325 13.3948C39.3028 13.9826 41.1988 13.6034 41.5116 11.9729C41.9338 8.97895 41.3075 5.93113 39.7389 3.34633C39.1327 2.13522 38.2251 1.10038 37.1035 0.341265C36.3048 -0.0822443 35.3552 -0.11318 34.5306 0.257442C33.7059 0.628063 33.0986 1.35871 32.8851 2.23721C32.0319 5.17592 36.6106 6.42724 37.4543 3.49801L37.568 3.11882L36.4779 4.54078L35.9091 4.70193L34.2312 4.00991C35.8996 5.34655 37.3595 8.54121 36.9424 10.7026L40.4214 9.29011C38.9805 8.61705 37.5775 6.19972 37.4258 4.64505C37.0846 1.64946 32.3352 1.61155 32.686 4.64505V4.65453Z" fill="#231F20"/>
</svg>
